#N canvas 99 39 407 566 10;
#X obj 76 147 / 127;
#X obj 77 110 sel 0;
#X obj 169 189 * 1000;
#X obj 180 300 pack f f;
#X msg 151 370 0 \$2;
#X obj 319 191 * 1000;
#X obj 226 189 * 1000;
#X obj 94 412 vline~;
#X obj 84 286 pack f f f f;
#X msg 93 331 \$1 \$2 \, \$4 \$3 \$2;
#X obj 272 212 *;
#X obj 83 233 t f f;
#X obj 92 450 outlet~ amp;
#X obj 78 21 inlet velocity;
#X obj 244 23 inlet adsr;
#X floatatom 78 62 5 0 0 0 - - -, f 5;
#X obj 75 175 *;
#X floatatom 39 228 5 0 0 0 - - -, f 5;
#X obj 231 60 unpack f f f f f;
#X connect 0 0 16 0;
#X connect 1 0 3 0;
#X connect 1 1 0 0;
#X connect 2 0 8 1;
#X connect 3 0 4 0;
#X connect 4 0 7 0;
#X connect 5 0 3 1;
#X connect 6 0 8 2;
#X connect 7 0 12 0;
#X connect 8 0 9 0;
#X connect 9 0 7 0;
#X connect 10 0 8 3;
#X connect 11 0 8 0;
#X connect 11 1 10 0;
#X connect 13 0 15 0;
#X connect 14 0 18 0;
#X connect 15 0 1 0;
#X connect 16 0 11 0;
#X connect 16 0 17 0;
#X connect 18 0 2 0;
#X connect 18 1 6 0;
#X connect 18 2 10 1;
#X connect 18 3 5 0;
#X connect 18 4 16 1;
