#N canvas 344 303 416 321 10;
#X floatatom 74 51 5 0 0 0 - - -, f 5;
#X floatatom 50 190 5 0 0 0 - - -, f 5;
#X obj 50 216 * 2;
#X floatatom 132 193 5 0 0 0 - - -, f 5;
#X obj 150 105 > 0.5;
#X obj 75 107 <= 0.5;
#X msg 99 162 0.5;
#X msg 182 168 0.5;
#X obj 133 212 expr 1 - (($f1 - 0.5) * 2);
#X obj 74 73 t f f f f;
#X obj 50 139 if_else;
#X obj 133 137 if_else;
#X obj 74 20 inlet;
#X obj 41 275 outlet;
#X obj 134 257 outlet;
#X connect 0 0 9 0;
#X connect 1 0 2 0;
#X connect 2 0 13 0;
#X connect 3 0 8 0;
#X connect 4 0 11 1;
#X connect 5 0 10 1;
#X connect 6 0 1 0;
#X connect 7 0 3 0;
#X connect 8 0 14 0;
#X connect 9 0 10 0;
#X connect 9 1 5 0;
#X connect 9 2 11 0;
#X connect 9 3 4 0;
#X connect 10 0 1 0;
#X connect 10 1 6 0;
#X connect 11 0 3 0;
#X connect 11 1 7 0;
#X connect 12 0 0 0;
