#N canvas 672 281 734 483 10;
#X obj 23 32 inlet~;
#X obj 23 433 outlet~;
#X obj 23 393 lop~;
#X obj 156 343 mtof;
#X obj 74 33 inlet velocity;
#X obj 175 33 inlet filterAdsr;
#X msg 60 111 127;
#X obj 74 78 sel 0;
#X msg 100 112 0;
#X obj 100 204 snapshot~;
#X obj 234 146 metro 10;
#X obj 100 239 * 127;
#X msg 234 121 1, f 4;
#X obj 234 97 loadbang;
#X floatatom 122 313 5 0 0 0 - - -, f 5;
#X obj 100 157 adsr~, f 13;
#X obj 215 245 tgl 15 0 empty empty empty 17 7 0 10 -262144 -1 -1 1
1;
#X obj 197 286 spigot;
#X obj 145 286 spigot;
#X msg 197 312 127;
#X obj 259 265 - 1;
#X obj 295 33 inlet filterAdsrOnOff;
#N canvas 1119 394 479 385 selector 0;
#X obj 216 49 hradio 15 1 0 3 empty empty empty 0 -8 0 10 -262144 -1
-1 0;
#X obj 184 208 spigot;
#X obj 216 174 tgl 15 0 empty empty empty 17 7 0 10 -262144 -1 -1 1
1;
#X obj 216 142 == 0;
#X obj 251 208 spigot;
#X obj 284 179 tgl 15 0 empty empty empty 17 7 0 10 -262144 -1 -1 0
1;
#X obj 327 209 spigot;
#X obj 360 180 tgl 15 0 empty empty empty 17 7 0 10 -262144 -1 -1 0
1;
#X obj 284 147 == 1;
#X obj 360 148 == 2;
#X obj 216 12 inlet selected;
#X obj 217 94 t f f f;
#X connect 0 0 11 0;
#X connect 2 0 1 1;
#X connect 3 0 2 0;
#X connect 5 0 4 1;
#X connect 7 0 6 1;
#X connect 8 0 5 0;
#X connect 9 0 7 0;
#X connect 10 0 0 0;
#X connect 11 0 3 0;
#X connect 11 1 8 0;
#X connect 11 2 9 0;
#X restore 476 189 pd selector;
#X connect 0 0 2 0;
#X connect 2 0 1 0;
#X connect 3 0 2 1;
#X connect 4 0 7 0;
#X connect 4 0 17 0;
#X connect 5 0 15 1;
#X connect 6 0 15 0;
#X connect 7 0 8 0;
#X connect 7 1 6 0;
#X connect 8 0 15 0;
#X connect 9 0 11 0;
#X connect 10 0 9 0;
#X connect 11 0 18 0;
#X connect 12 0 10 0;
#X connect 13 0 12 0;
#X connect 14 0 3 0;
#X connect 15 0 9 0;
#X connect 16 0 20 0;
#X connect 16 0 18 1;
#X connect 17 0 19 0;
#X connect 18 0 14 0;
#X connect 19 0 3 0;
#X connect 20 0 17 1;
#X connect 21 0 16 0;
