#N canvas 739 140 612 566 10;
#X obj 97 236 * 127;
#X floatatom 154 231 5 0 0 0 - - -, f 5;
#X obj 209 229 * 0.3;
#X obj 175 259 + 0.4;
#X obj 201 367 +~;
#X obj 140 315 mtof~;
#X obj 263 195 osc~;
#X obj 256 241 *~;
#X floatatom 248 147 5 0 0 0 - - -, f 5;
#X floatatom 261 357 5 0 0 0 - - -, f 5;
#X obj 169 392 osc~;
#X obj 106 403 *~ 0.33;
#X floatatom 322 127 5 0 0 0 - - -, f 5;
#X obj 399 209 exp;
#X obj 356 229 + -1;
#X obj 313 253 * -1;
#X obj 403 183 * -1;
#X obj 286 311 * 1000;
#X obj 281 113 * 50;
#X obj 56 442 *~ 0;
#X msg 67 350 \$1 1000;
#X obj 63 377 line, f 10;
#X obj 108 54 inlet onOff;
#X obj 195 50 inlet note;
#X obj 266 43 inlet pitchModAmp;
#X obj 382 42 inlet pitchModSpeed;
#X obj 68 506 outlet~;
#X connect 0 0 5 0;
#X connect 1 0 0 0;
#X connect 2 0 3 0;
#X connect 3 0 1 0;
#X connect 4 0 10 0;
#X connect 5 0 4 0;
#X connect 6 0 7 0;
#X connect 7 0 4 1;
#X connect 8 0 6 0;
#X connect 9 0 7 1;
#X connect 10 0 11 0;
#X connect 11 0 19 0;
#X connect 12 0 18 0;
#X connect 13 0 14 0;
#X connect 14 0 15 0;
#X connect 15 0 12 0;
#X connect 16 0 13 0;
#X connect 17 0 9 0;
#X connect 18 0 8 0;
#X connect 19 0 26 0;
#X connect 20 0 21 0;
#X connect 21 0 19 1;
#X connect 22 0 20 0;
#X connect 23 0 2 0;
#X connect 24 0 17 0;
#X connect 25 0 16 0;
