#N canvas 43 47 450 300 10;
#X obj 58 135 spigot;
#X obj 100 76 tgl 15 0 empty empty empty 17 7 0 10 -262144 -1 -1 1
1;
#X obj 109 135 spigot;
#X obj 139 107 - 1;
#X obj 54 22 inlet messageIn;
#X obj 170 18 inlet trueOrFalse;
#X obj 57 205 outlet true;
#X obj 171 206 outlet false;
#X connect 0 0 6 0;
#X connect 1 0 0 1;
#X connect 1 0 3 0;
#X connect 2 0 7 0;
#X connect 3 0 2 1;
#X connect 4 0 0 0;
#X connect 4 0 2 0;
#X connect 5 0 1 0;
