#N canvas 923 166 786 822 10;
#X obj 11 3 inlet~;
#X obj 13 180 outlet~;
#X obj 417 235 r sFrequency;
#X floatatom 417 257 5 0 0 0 - - -, f 5;
#X obj 538 80 vsl 15 128 0 127 0 0 empty empty cFrequency 0 -9 0 10
-258113 -1 -1 0 1;
#X floatatom 554 283 8 0 0 0 - - -, f 8;
#X obj 306 236 r cFrequency;
#X floatatom 289 263 8 0 0 0 - - -, f 8;
#X msg 376 79 44100;
#X obj 381 105 s sFrequency;
#X obj 195 288 expr tan(4*atan(1) * $f2 / $f3);
#X obj 55 230 r compute;
#X obj 55 252 t b b;
#X obj 33 454 expr $f2 * $f2 * $f1;
#X obj 33 546 expr $f1 *2;
#X obj 88 603 s a1;
#X obj 31 667 expr $f2;
#X obj 78 731 s a2, f 5;
#X obj 267 358 s K, f 5;
#X obj 233 419 expr 2 * ($f2 * $f2 - 1) * $f3;
#X obj 65 426 s norm;
#X obj 185 426 r K;
#X obj 345 380 r K;
#X obj 438 380 r norm;
#X obj 242 583 expr (1 - $f2 / $f3 + $f2 * $f2) * $f4;
#X obj 345 546 r K;
#X obj 654 176 vsl 15 128 0.1 12 0 0 quality empty Quality 0 -9 0 10
-4032 -1 -1 0 1;
#X floatatom 654 312 8 0 0 0 - - -, f 8;
#X obj 397 546 r quality;
#X obj 500 542 r norm;
#X obj 303 664 s b2;
#X obj 26 367 expr 1./(1+ $f3/$f2 + $f3 * $f3);
#X obj 115 319 r quality;
#X obj 252 725 expr $f2;
#X obj 85 634 r a0;
#X obj 64 515 s a0;
#X obj 313 693 r b1saved;
#X obj 271 753 s b1;
#X obj 342 495 s b1saved;
#X obj 63 46 r b1;
#X obj 102 43 r b2;
#X obj 138 44 r a0;
#X obj 170 69 r a1;
#X obj 205 41 r a2;
#X obj 64 71 * -1;
#X obj 103 72 * -1;
#X obj 557 259 mtof;
#X obj 556 310 s cFrequency;
#X obj 35 395 t f f;
#X obj 33 483 t f f;
#X obj 33 578 t f f;
#X obj 31 697 t f f;
#X obj 240 463 t f f;
#X obj 248 633 t f f;
#X obj 532 387 s compute;
#X obj 223 320 t f f;
#X obj 71 102 pack f f f f f, f 20;
#X obj 12 143 d-biquad~;
#X obj 531 17 inlet frequency;
#X obj 656 99 inlet quality;
#X obj 303 11 r PreInit;
#X obj 303 47 t b b b;
#X msg 328 93 1000;
#X obj 329 130 s cFrequency;
#X msg 303 69 0.1;
#X floatatom 115 341 5 0 0 0 - - -, f 5;
#X obj 294 153 s quality;
#X obj 532 228 t b f;
#X connect 0 0 57 0;
#X connect 2 0 3 0;
#X connect 3 0 10 2;
#X connect 4 0 67 0;
#X connect 5 0 47 0;
#X connect 6 0 7 0;
#X connect 7 0 10 1;
#X connect 8 0 9 0;
#X connect 10 0 55 0;
#X connect 11 0 12 0;
#X connect 12 0 31 0;
#X connect 12 1 10 0;
#X connect 13 0 49 0;
#X connect 14 0 50 0;
#X connect 16 0 51 0;
#X connect 19 0 52 0;
#X connect 21 0 13 1;
#X connect 22 0 19 1;
#X connect 23 0 19 2;
#X connect 24 0 53 0;
#X connect 25 0 24 1;
#X connect 26 0 27 0;
#X connect 27 0 54 0;
#X connect 28 0 24 2;
#X connect 29 0 24 3;
#X connect 31 0 48 0;
#X connect 32 0 31 1;
#X connect 32 0 65 0;
#X connect 33 0 37 0;
#X connect 34 0 16 1;
#X connect 36 0 33 1;
#X connect 39 0 44 0;
#X connect 40 0 45 0;
#X connect 41 0 56 2;
#X connect 42 0 56 3;
#X connect 43 0 56 4;
#X connect 44 0 56 0;
#X connect 45 0 56 1;
#X connect 46 0 5 0;
#X connect 48 0 13 0;
#X connect 48 1 20 0;
#X connect 49 0 14 0;
#X connect 49 1 35 0;
#X connect 50 0 16 0;
#X connect 50 1 15 0;
#X connect 51 0 19 0;
#X connect 51 1 17 0;
#X connect 52 0 24 0;
#X connect 52 1 38 0;
#X connect 53 0 33 0;
#X connect 53 1 30 0;
#X connect 55 0 31 2;
#X connect 55 1 18 0;
#X connect 56 0 57 1;
#X connect 57 0 1 0;
#X connect 58 0 4 0;
#X connect 59 0 26 0;
#X connect 60 0 61 0;
#X connect 61 0 64 0;
#X connect 61 1 62 0;
#X connect 61 2 8 0;
#X connect 62 0 63 0;
#X connect 64 0 66 0;
#X connect 67 0 54 0;
#X connect 67 1 46 0;
