#N canvas 649 193 1028 751 10;
#X obj 101 711 outlet~;
#X obj 62 553 phasor~;
#X obj 55 371 mtof;
#X obj 65 645 *~;
#X obj 55 479 pack 0 0;
#X obj 63 8 inlet pitch/velocity;
#X obj 63 47 unpack 0 0;
#X obj 58 518 line, f 7;
#X obj 244 216 snapshot~;
#X obj 300 188 metro 10;
#X msg 302 161 1;
#X floatatom 244 238 5 0 0 0 - - -, f 5;
#X msg 178 103 127;
#X obj 203 72 sel 0;
#X msg 230 103 0;
#X obj 63 80 t f f;
#X floatatom 267 430 5 0 0 0 - - -, f 5;
#X msg 368 184 \$5;
#X floatatom 368 206 5 0 0 0 - - -, f 5;
#X obj 120 81 t f f f;
#X obj 363 339 tgl 15 0 empty empty empty 17 7 0 10 -262144 -1 -1 1
1;
#X obj 303 365 - 1;
#X obj 325 395 spigot;
#X obj 267 397 spigot;
#X obj 306 124 r initAll;
#X obj 244 137 adsr~, f 7;
#X obj 151 513 adsr~, f 21;
#X obj 376 311 r pitchAdsrOnOff;
#X obj 155 606 r filterAdsrOnOff;
#X obj 101 676 filtering;
#X obj 77 404 r initAll;
#X msg 77 437 0;
#X obj 261 470 r adsr;
#X obj 141 576 r filterAdsr;
#X obj 369 26 r pitchAdsr;
#X obj 118 301 expr $f2 - $f1 + $f3;
#X connect 1 0 3 0;
#X connect 2 0 4 0;
#X connect 3 0 29 0;
#X connect 4 0 7 0;
#X connect 5 0 6 0;
#X connect 6 0 15 0;
#X connect 6 1 19 0;
#X connect 7 0 1 0;
#X connect 8 0 11 0;
#X connect 9 0 8 0;
#X connect 10 0 9 0;
#X connect 11 0 35 0;
#X connect 12 0 25 0;
#X connect 13 0 14 0;
#X connect 13 1 12 0;
#X connect 14 0 25 0;
#X connect 15 0 35 1;
#X connect 15 1 23 0;
#X connect 16 0 2 0;
#X connect 17 0 18 0;
#X connect 18 0 35 2;
#X connect 19 0 29 1;
#X connect 19 1 26 0;
#X connect 19 2 13 0;
#X connect 20 0 21 0;
#X connect 20 0 22 1;
#X connect 21 0 23 1;
#X connect 22 0 16 0;
#X connect 23 0 16 0;
#X connect 24 0 10 0;
#X connect 25 0 8 0;
#X connect 26 0 3 1;
#X connect 27 0 20 0;
#X connect 28 0 29 3;
#X connect 29 0 0 0;
#X connect 30 0 31 0;
#X connect 31 0 4 1;
#X connect 32 0 26 1;
#X connect 33 0 29 2;
#X connect 34 0 17 0;
#X connect 34 0 25 1;
#X connect 35 0 22 0;
