#N canvas 640 319 698 385 10;
#X obj 71 5 inlet midiNote;
#X obj 261 5 inlet type;
#X obj 346 5 inlet squareness;
#X obj 78 301 outlet~;
#X obj 261 71 hradio 15 1 0 5 empty empty empty 0 -8 0 10 -4034 -1
-1 0;
#X obj 233 107 == 0;
#X obj 233 136 tgl 15 0 empty empty empty 17 7 0 10 -262144 -1 -1 1
1;
#X obj 269 136 tgl 15 0 empty empty empty 17 7 0 10 -262144 -1 -1 0
1;
#X obj 269 107 == 1;
#X obj 307 137 tgl 15 0 empty empty empty 17 7 0 10 -262144 -1 -1 0
1;
#X obj 307 108 == 2;
#X obj 343 137 tgl 15 0 empty empty empty 17 7 0 10 -262144 -1 -1 0
1;
#X obj 343 108 == 3;
#X obj 381 136 tgl 15 0 empty empty empty 17 7 0 10 -262144 -1 -1 0
1;
#X obj 381 107 == 4;
#X obj 78 183 osc~;
#X obj 264 182 square~;
#X obj 333 182 noise~;
#X obj 129 182 triangle~;
#X obj 209 182 saw~;
#X obj 78 205 *~;
#X obj 129 204 *~;
#X obj 209 204 *~;
#X obj 264 204 *~;
#X obj 333 204 *~;
#X obj 189 17 loadbang;
#X msg 189 39 0;
#X connect 0 0 15 0;
#X connect 0 0 16 0;
#X connect 0 0 18 0;
#X connect 0 0 19 0;
#X connect 1 0 4 0;
#X connect 2 0 16 1;
#X connect 4 0 5 0;
#X connect 4 0 8 0;
#X connect 4 0 10 0;
#X connect 4 0 12 0;
#X connect 4 0 14 0;
#X connect 5 0 6 0;
#X connect 6 0 20 1;
#X connect 7 0 21 1;
#X connect 8 0 7 0;
#X connect 9 0 22 1;
#X connect 10 0 9 0;
#X connect 11 0 23 1;
#X connect 12 0 11 0;
#X connect 13 0 24 1;
#X connect 14 0 13 0;
#X connect 15 0 20 0;
#X connect 16 0 23 0;
#X connect 17 0 24 0;
#X connect 18 0 21 0;
#X connect 19 0 22 0;
#X connect 20 0 3 0;
#X connect 21 0 3 0;
#X connect 22 0 3 0;
#X connect 23 0 3 0;
#X connect 24 0 3 0;
#X connect 25 0 26 0;
#X connect 26 0 4 0;
