#N canvas 836 187 525 482 10;
#X obj 38 396 dac~;
#X obj 37 268 osc~;
#X obj 37 231 mtof;
#X msg 37 157 64;
#X obj 37 14 loadbang;
#X obj 104 255 vline~, f 12;
#X obj 37 302 *~;
#X msg 120 199 1 1000;
#X msg 81 179 1 10 \, 0 300 100;
#X obj 74 107 metro 400;
#X obj 36 61 bng 15 250 50 0 empty empty empty 17 7 0 10 -262144 -1
-1;
#X obj 37 363 *~;
#X obj 135 321 loadbang;
#X msg 117 346 0;
#X obj 202 253 line~;
#X obj 251 82 tgl 15 0 empty empty empty 17 7 0 10 -262144 -1 -1 0
1;
#X obj 224 157 bng 15 250 50 0 empty empty empty 17 7 0 10 -262144
-1 -1;
#X obj 265 152 bng 15 250 50 0 empty empty empty 17 7 0 10 -262144
-1 -1;
#X obj 244 120 sel 1;
#X msg 211 207 1 4000;
#X msg 264 207 0 4000;
#X obj 311 12 loadbang;
#X msg 293 37 0;
#X obj 378 56 r onOff;
#X connect 1 0 6 0;
#X connect 2 0 1 0;
#X connect 3 0 2 0;
#X connect 4 0 10 0;
#X connect 5 0 6 1;
#X connect 6 0 11 0;
#X connect 7 0 5 0;
#X connect 8 0 5 0;
#X connect 9 0 8 0;
#X connect 9 0 3 0;
#X connect 10 0 9 0;
#X connect 10 0 3 0;
#X connect 11 0 0 0;
#X connect 12 0 13 0;
#X connect 13 0 11 1;
#X connect 14 0 11 1;
#X connect 15 0 18 0;
#X connect 16 0 19 0;
#X connect 17 0 20 0;
#X connect 18 0 16 0;
#X connect 18 1 17 0;
#X connect 19 0 14 0;
#X connect 20 0 14 0;
#X connect 21 0 22 0;
#X connect 22 0 15 0;
#X connect 23 0 15 0;
