#N canvas 260 23 508 475 10;
#X obj 169 162 pack 0 0 0;
#X obj 214 430 outlet~;
#X obj 169 11 inlet note;
#X obj 226 40 inlet velocity;
#X obj 169 210 route 1 2 3 4 5 6;
#X obj 169 102 poly 6 1, f 10;
#X obj 24 301 monoSynth;
#X obj 94 301 monoSynth;
#X obj 163 301 monoSynth;
#X obj 235 301 monoSynth;
#X obj 307 301 monoSynth;
#X obj 376 301 monoSynth;
#X connect 0 0 4 0;
#X connect 2 0 5 0;
#X connect 3 0 5 1;
#X connect 4 0 6 0;
#X connect 4 1 7 0;
#X connect 4 2 8 0;
#X connect 4 3 9 0;
#X connect 4 4 10 0;
#X connect 4 5 11 0;
#X connect 5 0 0 0;
#X connect 5 1 0 1;
#X connect 5 2 0 2;
#X connect 6 0 1 0;
#X connect 7 0 1 0;
#X connect 8 0 1 0;
#X connect 9 0 1 0;
#X connect 10 0 1 0;
#X connect 11 0 1 0;
