#N canvas 430 109 773 661 10;
#N canvas 0 50 450 250 (subpatch) 0;
#X array channelR 270566 float 2;
#X coords 0 1 270566 -1 200 140 1 0 0;
#X restore 530 205 graph;
#N canvas 0 50 450 250 (subpatch) 0;
#X array channelL 270566 float 2;
#X coords 0 1 270566 -1 200 140 1;
#X restore 525 24 graph;
#X obj 44 45 soundfiler;
#X floatatom 154 91 12 0 0 0 - - -, f 12;
#X obj 40 92 expr 44100 / $f1;
#X obj 158 117 s sampleSize;
#X obj 83 382 *~;
#X obj 104 352 r sampleSize;
#X obj 82 450 tabread4~ channelL;
#X obj 106 477 tabread4~ channelR;
#X obj 158 538 vsl 30 50 0 1 0 0 empty empty empty 0 -9 0 10 -262144
-1 -1 2500 1;
#X obj 119 533 *~;
#X obj 83 532 *~;
#X obj 83 601 dac~;
#X floatatom 40 122 12 0 0 0 - - -, f 12;
#X obj 269 389 metro 50;
#X obj 266 362 tgl 15 0 empty empty empty 17 7 0 10 -262144 -1 -1 1
1;
#X obj 270 423 snapshot~;
#X floatatom 270 445 14 0 0 0 - - -, f 14;
#X obj 270 482 /;
#X obj 302 463 r sampleSize;
#X floatatom 269 517 5 0 0 0 - - -, f 5;
#X obj 531 356 hsl 200 15 0 1 0 0 empty empty empty -2 -8 0 10 -262144
-1 -1 0 1;
#X obj 61 201 hsl 128 15 -1 1 0 0 empty empty empty -2 -8 0 10 -262144
-1 -1 7385 1;
#X floatatom 61 232 12 0 0 0 - - -, f 12;
#X obj 83 325 phasor~;
#X msg 39 -12 read -resize gen.wav channelL channelR;
#X msg 174 301 0;
#X msg 211 301 0.5;
#X obj 246 180 bng 15 250 50 0 empty empty empty 17 7 0 10 -262144
-1 -1;
#X text 241 158 play;
#X text 380 137 pause;
#X obj 470 112 bng 15 250 50 0 empty empty empty 17 7 0 10 -262144
-1 -1;
#X obj 452 137 t b b;
#X text 463 89 stop;
#X obj 406 215 bng 15 250 50 0 empty empty empty 17 7 0 10 -262144
-1 -1;
#X obj 391 251 t b b;
#X obj 384 161 bng 15 250 50 0 empty empty empty 17 7 0 10 -262144
-1 -1;
#X msg 298 197 0;
#X text 381 191 playAtBegining;
#X floatatom 332 77 5 0 0 0 - - -, f 5;
#X obj 330 105 delay;
#X obj 314 48 expr (1 / $f1) * 1000;
#X obj 312 17 abs;
#X obj 74 266 pack b f;
#X msg 76 292 \$2;
#X obj 40 149 s readSpeed;
#X obj 58 175 r readSpeed;
#X obj 308 -11 r readSpeed;
#X connect 2 0 3 0;
#X connect 2 0 4 0;
#X connect 3 0 5 0;
#X connect 4 0 14 0;
#X connect 6 0 8 0;
#X connect 6 0 9 0;
#X connect 6 0 17 0;
#X connect 7 0 6 1;
#X connect 8 0 12 0;
#X connect 9 0 11 0;
#X connect 10 0 11 1;
#X connect 10 0 12 1;
#X connect 11 0 13 1;
#X connect 12 0 13 0;
#X connect 14 0 46 0;
#X connect 15 0 17 0;
#X connect 16 0 15 0;
#X connect 17 0 18 0;
#X connect 18 0 19 0;
#X connect 19 0 21 0;
#X connect 20 0 19 1;
#X connect 21 0 22 0;
#X connect 23 0 24 0;
#X connect 24 0 44 1;
#X connect 25 0 6 0;
#X connect 26 0 2 0;
#X connect 27 0 25 1;
#X connect 28 0 25 1;
#X connect 29 0 41 0;
#X connect 29 0 44 0;
#X connect 32 0 33 0;
#X connect 33 0 27 0;
#X connect 33 1 37 0;
#X connect 35 0 36 0;
#X connect 36 0 27 0;
#X connect 36 1 29 0;
#X connect 37 0 38 0;
#X connect 38 0 25 0;
#X connect 40 0 41 1;
#X connect 41 0 32 0;
#X connect 42 0 40 0;
#X connect 43 0 42 0;
#X connect 44 0 45 0;
#X connect 45 0 25 0;
#X connect 47 0 23 0;
#X connect 48 0 43 0;
