#N canvas 0 22 275 238 10;
#X obj 59 89 phasor~;
#X obj 57 111 -~ 0.5;
#X obj 54 133 *~ 2;
#X obj 56 60 inlet frequency;
#X obj 54 155 outlet~;
#X connect 0 0 1 0;
#X connect 1 0 2 0;
#X connect 2 0 4 0;
#X connect 3 0 0 0;
