#N canvas 50 150 722 577 10;
#X obj 174 219 i;
#X obj 238 219 + 1;
#X obj 182 178 metro;
#X obj 138 90 tgl 15 0 empty empty empty 17 7 0 10 -262144 -1 -1 1
1;
#X obj 180 261 mod 16;
#X obj 127 385 expr melody[$f1];
#X obj 180 320 hradio 15 1 0 16 empty empty empty 0 -8 0 10 -262144
-1 -1 2;
#X obj 255 133 expr (60000./$f1);
#X obj 263 110 * 4;
#X obj 233 26 inlet tempo;
#X obj 128 42 inlet start stop;
#X obj 134 527 outlet noteOut;
#X obj 440 162 table melody;
#X obj 432 190 table velocity;
#X obj 181 349 t f f;
#X obj 268 524 outlet velocityOut;
#X obj 138 457 makenote 0 100;
#X obj 257 385 expr velocity[$f1];
#X msg 308 227 \; melody 0 60 63 67 60 63 67 60 63 67 60 63 67 60 63
67 63;
#X msg 309 269 \; velocity 0 127 127 127 100 100 100 100 100 100 100
60 40 100 40 60 40;
#X connect 0 0 1 0;
#X connect 0 0 4 0;
#X connect 1 0 0 1;
#X connect 2 0 0 0;
#X connect 3 0 2 0;
#X connect 3 0 18 0;
#X connect 3 0 19 0;
#X connect 4 0 6 0;
#X connect 5 0 16 0;
#X connect 6 0 14 0;
#X connect 7 0 2 1;
#X connect 7 0 16 2;
#X connect 8 0 7 0;
#X connect 9 0 8 0;
#X connect 10 0 3 0;
#X connect 14 0 5 0;
#X connect 14 1 17 0;
#X connect 16 0 11 0;
#X connect 16 1 15 0;
#X connect 17 0 16 1;
