#N canvas 282 50 1025 795 10;
#N canvas 0 50 450 250 (subpatch) 0;
#X array Output 100 float 5;
#A 0 0.0785229 0.078611 0.0786992 -0.0719963 -0.350304 -0.4077 -0.305755
-0.302774 -0.338066 -0.334149 -0.323428 -0.326948 -0.330551 -0.329349
-0.328861 -0.329879 -0.330424 -0.330536 -0.330874 -0.331322 -0.331678
-0.33201 -0.332378 -0.332747 -0.333105 -0.333464 -0.333826 -0.334188
-0.334546 -0.334904 -0.335261 -0.335619 -0.335977 -0.336335 -0.241516
-0.0661519 -0.0302406 -0.0949091 -0.0971064 -0.0751454 -0.0779349 -0.0850185
-0.083113 -0.0811545 -0.0822271 0.0749382 0.36658 0.426728 0.319858
0.3167 0.353661 0.349531 0.338268 0.341929 0.345679 0.344396 0.343862
0.344905 0.345452 0.345545 0.345872 0.346315 0.34666 0.346982 0.34734
0.3477 0.348048 0.348397 0.34875 0.349101 0.349452 0.349804 0.350155
0.350506 0.350858 0.351208 0.351556 0.351903 0.352251 0.352599 0.352947
0.353295 0.353643 0.353991 0.354339 0.354687 0.355035 0.355383 0.190951
-0.112916 -0.175321 -0.0635863 -0.0600175 -0.0982742 -0.0936771 -0.0816461
-0.0851789 -0.0888029 -0.0871781 -0.0863352;
#X coords 0 1 100 -1 200 140 1 0 0;
#X restore 582 639 graph;
#X obj 25 755 dac~, f 5;
#X floatatom 32 190 5 0 0 0 - - -, f 5;
#X obj 35 713 *~;
#X obj 796 757 tabwrite~ Output;
#X obj 101 597 s~ Tabwrite;
#X obj 797 653 r~ Tabwrite;
#X obj 35 556 *~ 1;
#X obj 778 12 loadbang;
#X obj 782 103 s Init;
#X obj 876 20 bng 15 250 50 0 empty empty empty 17 7 0 10 -262144 -1
-1;
#X obj 886 653 r Init;
#X obj 484 221 vsl 15 128 0 1 0 0 ShikoSynth_MasterVolume empty MVOLUME
0 -9 0 10 -260097 -1 -1 3175 1;
#X msg 58 656 \$1 15;
#X obj 55 682 line~;
#X obj 440 220 vsl 15 128 0.5 50 0 0 empty empty DISTO!!! 0 -9 0 10
-258113 -1 -1 103 1;
#X msg 144 457 \$1 15;
#X obj 144 479 line~;
#X obj 35 486 *~;
#X obj 34 120 sequencer;
#X msg 108 39 120;
#X obj 61 91 tgl 15 0 empty empty empty 17 7 0 10 -262144 -1 -1 1 1
;
#X obj 531 219 vsl 15 128 0 127 0 0 ShikoSynth_CutOff empty CUTOFF
0 -9 0 10 -4034 -1 -1 6300 1;
#X floatatom 104 83 5 0 0 0 - - -, f 5;
#X obj 572 219 vsl 15 128 0.1 12 0 0 ShikoSynth_Res empty RES 0 -9
0 10 -159808 -1 -1 961 1;
#X obj 34 12 r Init;
#X msg 34 58 1;
#X obj 784 59 t b b;
#X obj 859 105 s PreInit;
#X msg 535 178 40;
#X msg 491 180 0.25;
#X msg 441 181 0.9;
#X obj 521 95 r Init;
#X obj 859 64 bng 15 250 50 0 empty empty empty 17 7 0 10 -262144 -1
-1;
#X obj 761 83 bng 15 250 50 0 empty empty empty 17 7 0 10 -262144 -1
-1;
#X obj 34 444 lop_biquad;
#X obj 105 419 r ShikoSynth_Res;
#X obj 79 396 r ShikoSynth_CutOff;
#X obj 86 354 adsr~;
#X obj 843 210 vsl 15 128 0 1 0 0 empty empty empty 0 -9 0 10 -262144
-1 -1 0 1;
#X obj 879 209 vsl 15 128 0 1 0 0 empty empty empty 0 -9 0 10 -262144
-1 -1 12700 1;
#X obj 815 212 vsl 15 128 0 1 0 0 empty empty empty 0 -9 0 10 -262144
-1 -1 1270 1;
#X obj 910 209 vsl 15 128 0 1 0 0 empty empty empty 0 -9 0 10 -262144
-1 -1 6350 1;
#X msg 843 179 0;
#X msg 879 179 1;
#X msg 926 178 0.5;
#X obj 813 417 s adsr;
#X obj 814 359 pack f f f f f;
#X msg 813 178 0.1;
#X obj 849 139 r Init;
#X obj 140 329 r adsr;
#X obj 35 379 *~;
#X obj 886 714 metro 200;
#X msg 812 386 \$2 \$3 \$4 \$5 1;
#X obj 29 327 *~ 0.5;
#X floatatom 572 358 5 0 0 0 - - -, f 5;
#X obj 59 628 r ShikoSynth_MasterVolume;
#X obj 515 127 t b b b b b b;
#X obj 615 216 vsl 15 128 0 1 0 0 ShikoSynth_Osc1Volume empty OSC1VOL
0 -9 0 10 -203904 -1 -1 6350 1;
#X floatatom 618 359 5 0 0 0 - - -, f 5;
#X msg 628 176 0.5;
#X obj 667 220 vsl 15 128 0 1 0 0 ShikoSynth_Osc2Volume empty OSC2VOL
0 -9 0 10 -204786 -1 -1 6350 1;
#X floatatom 667 359 5 0 0 0 - - -, f 5;
#X msg 677 176 0.5;
#X obj 34 516 clip~ -1 1;
#N canvas 629 146 851 555 poly 1;
#X obj 31 28 inlet midiNote;
#X obj 52 465 outlet~;
#N canvas 1057 218 410 393 monoDoubleOsc 1;
#X obj 33 145 mtof;
#X obj 31 200 oscillator~;
#X obj 92 161 hradio 15 1 0 5 empty ShikoSynth_Osc1WaveForm empty 0
-8 0 10 -4032 -1 -1 2;
#X obj 188 203 oscillator~;
#X obj 241 168 hradio 15 1 0 5 empty ShikoSynth_Osc2WaveForm empty
0 -8 0 10 -4032 -1 -1 2;
#X obj 106 82 hradio 15 1 0 5 empty ShikoSynth_Osc1Octave empty 0 -8
0 10 -262130 -1 -1 2;
#X obj 189 150 mtof;
#X obj 268 81 hradio 15 1 0 5 empty ShikoSynth_Osc2Octave empty 0 -8
0 10 -262130 -1 -1 0;
#X obj 34 105 midiOctaver;
#X obj 191 110 midiOctaver;
#X obj 223 233 r ShikoSynth_Osc2Volume;
#X obj 52 233 r ShikoSynth_Osc1Volume;
#X obj 29 323 *~;
#X obj 81 319 *~;
#X msg 50 260 \$1 15;
#X obj 50 283 line~;
#X msg 215 259 \$1 15;
#X obj 215 282 line~;
#X obj 26 358 outlet~;
#X obj 34 15 inlet midiNote/velocity;
#X obj 34 37 unpack 0 0;
#X floatatom 34 59 5 0 0 0 - - -, f 5;
#X connect 0 0 1 0;
#X connect 1 0 12 0;
#X connect 2 0 1 1;
#X connect 3 0 13 0;
#X connect 4 0 3 1;
#X connect 5 0 8 1;
#X connect 6 0 3 0;
#X connect 7 0 9 1;
#X connect 8 0 0 0;
#X connect 9 0 6 0;
#X connect 10 0 16 0;
#X connect 11 0 14 0;
#X connect 12 0 18 0;
#X connect 13 0 18 0;
#X connect 14 0 15 0;
#X connect 15 0 12 1;
#X connect 16 0 17 0;
#X connect 17 0 13 1;
#X connect 19 0 20 0;
#X connect 20 0 8 0;
#X connect 20 0 9 0;
#X connect 20 0 21 0;
#X restore 33 316 pd monoDoubleOsc;
#X obj 162 28 inlet velocity;
#X obj 37 163 pack 0 0 0;
#X obj 36 221 route 1 2 3 4 5 6;
#X obj 57 193 bng 15 250 50 0 empty empty empty 17 7 0 10 -262144 -1
-1;
#N canvas 1057 218 410 393 monoDoubleOsc 0;
#X obj 33 145 mtof;
#X obj 31 200 oscillator~;
#X obj 92 161 hradio 15 1 0 5 empty ShikoSynth_Osc1WaveForm empty 0
-8 0 10 -4032 -1 -1 2;
#X obj 188 203 oscillator~;
#X obj 241 168 hradio 15 1 0 5 empty ShikoSynth_Osc2WaveForm empty
0 -8 0 10 -4032 -1 -1 2;
#X obj 106 82 hradio 15 1 0 5 empty ShikoSynth_Osc1Octave empty 0 -8
0 10 -262130 -1 -1 2;
#X obj 189 150 mtof;
#X obj 268 81 hradio 15 1 0 5 empty ShikoSynth_Osc2Octave empty 0 -8
0 10 -262130 -1 -1 0;
#X obj 34 105 midiOctaver;
#X obj 191 110 midiOctaver;
#X obj 223 233 r ShikoSynth_Osc2Volume;
#X obj 52 233 r ShikoSynth_Osc1Volume;
#X obj 29 323 *~;
#X obj 81 319 *~;
#X msg 50 260 \$1 15;
#X obj 50 283 line~;
#X msg 215 259 \$1 15;
#X obj 215 282 line~;
#X obj 26 358 outlet~;
#X obj 34 15 inlet midiNote/velocity;
#X obj 34 37 unpack 0 0;
#X connect 0 0 1 0;
#X connect 1 0 12 0;
#X connect 2 0 1 1;
#X connect 3 0 13 0;
#X connect 4 0 3 1;
#X connect 5 0 8 1;
#X connect 6 0 3 0;
#X connect 7 0 9 1;
#X connect 8 0 0 0;
#X connect 9 0 6 0;
#X connect 10 0 16 0;
#X connect 11 0 14 0;
#X connect 12 0 18 0;
#X connect 13 0 18 0;
#X connect 14 0 15 0;
#X connect 15 0 12 1;
#X connect 16 0 17 0;
#X connect 17 0 13 1;
#X connect 19 0 20 0;
#X connect 20 0 8 0;
#X connect 20 0 9 0;
#X restore 33 316 pd monoDoubleOsc;
#X obj 37 88 poly 1 1, f 10;
#X obj 82 253 bng 15 250 50 0 empty empty empty 17 7 0 10 -262144 -1
-1;
#X connect 0 0 8 0;
#X connect 2 0 1 0;
#X connect 3 0 8 1;
#X connect 4 0 5 0;
#X connect 4 0 6 0;
#X connect 5 0 2 0;
#X connect 5 0 9 0;
#X connect 8 0 4 0;
#X connect 8 1 4 1;
#X connect 8 2 4 2;
#X restore 32 230 pd poly;
#X obj 280 135 hradio 15 1 0 5 ShikoSynth_Osc1WaveForm empty empty
0 -8 0 10 -4032 -1 -1 2;
#X obj 365 133 hradio 15 1 0 5 ShikoSynth_Osc2WaveForm empty empty
0 -8 0 10 -4032 -1 -1 2;
#X obj 276 79 hradio 15 1 0 5 ShikoSynth_Osc1Octave empty empty 0 -8
0 10 -262130 -1 -1 2;
#X obj 368 77 hradio 15 1 0 5 ShikoSynth_Osc2Octave empty empty 0 -8
0 10 -262130 -1 -1 0;
#X msg 366 108 2;
#X msg 278 52 2;
#X msg 368 50 0;
#X msg 278 111 1;
#X obj 302 7 r Init;
#X msg 582 175 1;
#X floatatom 151 149 5 0 0 0 - - -, f 5;
#X obj 149 172 mtof;
#X obj 145 208 osc~;
#X obj 128 251 *~;
#X connect 2 0 65 0;
#X connect 3 0 1 0;
#X connect 3 0 1 1;
#X connect 6 0 4 0;
#X connect 7 0 5 0;
#X connect 7 0 3 0;
#X connect 8 0 27 0;
#X connect 10 0 27 0;
#X connect 11 0 52 0;
#X connect 13 0 14 0;
#X connect 14 0 3 1;
#X connect 15 0 16 0;
#X connect 16 0 17 0;
#X connect 17 0 18 1;
#X connect 18 0 64 0;
#X connect 19 0 2 0;
#X connect 19 1 38 0;
#X connect 19 1 65 1;
#X connect 20 0 23 0;
#X connect 21 0 19 0;
#X connect 23 0 19 1;
#X connect 24 0 55 0;
#X connect 25 0 26 0;
#X connect 25 0 20 0;
#X connect 26 0 21 0;
#X connect 27 0 9 0;
#X connect 27 1 28 0;
#X connect 29 0 22 0;
#X connect 30 0 12 0;
#X connect 31 0 15 0;
#X connect 32 0 57 0;
#X connect 33 0 28 0;
#X connect 34 0 9 0;
#X connect 35 0 18 0;
#X connect 36 0 35 2;
#X connect 37 0 35 1;
#X connect 38 0 51 1;
#X connect 39 0 47 2;
#X connect 39 0 47 0;
#X connect 40 0 47 3;
#X connect 40 0 47 0;
#X connect 41 0 47 1;
#X connect 41 0 47 0;
#X connect 42 0 47 4;
#X connect 42 0 47 0;
#X connect 43 0 39 0;
#X connect 44 0 40 0;
#X connect 45 0 42 0;
#X connect 47 0 53 0;
#X connect 48 0 41 0;
#X connect 49 0 48 0;
#X connect 49 0 43 0;
#X connect 49 0 44 0;
#X connect 49 0 45 0;
#X connect 50 0 38 1;
#X connect 51 0 35 0;
#X connect 52 0 4 0;
#X connect 53 0 46 0;
#X connect 54 0 51 0;
#X connect 56 0 13 0;
#X connect 57 0 31 0;
#X connect 57 1 30 0;
#X connect 57 2 29 0;
#X connect 57 3 75 0;
#X connect 57 4 60 0;
#X connect 57 5 63 0;
#X connect 58 0 59 0;
#X connect 60 0 58 0;
#X connect 61 0 62 0;
#X connect 63 0 61 0;
#X connect 64 0 7 0;
#X connect 65 0 54 0;
#X connect 70 0 67 0;
#X connect 71 0 68 0;
#X connect 72 0 69 0;
#X connect 73 0 66 0;
#X connect 74 0 71 0;
#X connect 74 0 72 0;
#X connect 74 0 70 0;
#X connect 74 0 73 0;
#X connect 75 0 24 0;
#X connect 76 0 77 0;
#X connect 77 0 78 0;
#X connect 78 0 79 1;
