#N canvas 282 50 1025 795 10;
#N canvas 0 50 450 250 (subpatch) 0;
#X array Output 100 float 5;
#A 0 -1.22022e-009 9.48317e-010 -6.43082e-010 4.88324e-010 -3.37519e-010
2.52234e-010 -1.7665e-010 1.30568e-010 -9.22785e-011 6.76904e-011 -4.81415e-011
3.51294e-011 -2.50928e-011 1.82444e-011 -1.3071e-011 9.48e-012 -6.80593e-012
4.92763e-012 -3.54273e-012 2.56196e-012 -1.84374e-012 1.33223e-012
-9.59406e-013 6.92842e-013 -4.99186e-013 3.6035e-013 -2.59713e-013
1.8743e-013 -1.35116e-013 9.74922e-014 -7.02916e-014 5.07121e-014 -3.65672e-014
2.63792e-014 -1.90228e-014 1.3722e-014 -9.89579e-015 7.13797e-015 -5.14783e-015
3.71309e-015 -2.67791e-015 0.0665971 0.191717 0.271918 0.316279 0.345598
0.361261 0.372088 0.377604 0.381677 0.383631 0.38522 0.385937 0.386602
0.386898 0.387216 0.387371 0.387556 0.387667 0.3878 0.387899 0.38801
0.388106 0.388209 0.388304 0.388404 0.388499 0.388597 0.388693 0.38879
0.388886 0.388983 0.389079 0.389176 0.389272 0.389369 0.389465 0.389561
0.389658 0.389754 0.389851 0.389947 0.390043 0.39014 0.390236 0.390333
0.390429 0.390526 0.390622 0.390718 0.390815 0.390911 0.391008 0.391104
0.3912 0.391297 0.391393 0.39149 0.391586 0.391683;
#X coords 0 1 100 -1 200 140 1 0 0;
#X restore 582 639 graph;
#X obj 47 697 dac~, f 5;
#X obj 33 117 mtof;
#X floatatom 96 26 5 0 0 0 - - -, f 5;
#X obj 57 655 *~;
#X obj 796 757 tabwrite~ Output;
#X obj 111 539 s~ Tabwrite;
#X obj 797 653 r~ Tabwrite;
#X obj 48 512 *~ 1;
#X obj 778 12 loadbang;
#X obj 782 103 s Init;
#X obj 876 20 bng 15 250 50 0 empty empty empty 17 7 0 10 -262144 -1
-1;
#X obj 886 653 r Init;
#X obj 48 479 clip~ -1 1;
#X obj 474 243 vsl 15 128 0 1 0 0 ShikoSynth_MasterVolume empty MVOLUME
0 -9 0 10 -260097 -1 -1 3175 1;
#X msg 80 598 \$1 15;
#X obj 77 624 line~;
#X obj 440 220 vsl 15 128 0.5 50 0 0 empty empty DISTO!!! 0 -9 0 10
-258113 -1 -1 103 1;
#X msg 154 415 \$1 15;
#X obj 154 437 line~;
#X obj 45 444 *~;
#X obj 372 131 sequencer;
#X msg 440 55 120;
#X obj 372 99 tgl 15 0 empty empty empty 17 7 0 10 -262144 -1 -1 1
1;
#X obj 528 231 vsl 15 128 0 127 0 0 ShikoSynth_CutOff empty CUTOFF
0 -9 0 10 -4034 -1 -1 4000 1;
#X floatatom 436 99 5 0 0 0 - - -, f 5;
#X obj 575 223 vsl 15 128 0.1 12 0 0 ShikoSynth_Res empty RES 0 -9
0 10 -159808 -1 -1 3095 1;
#X obj 372 23 r Init;
#X msg 372 69 1;
#X obj 784 59 t b b;
#X obj 859 105 s PreInit;
#X msg 582 175 3;
#X msg 535 178 40;
#X msg 491 180 0.25;
#X msg 441 181 0.9;
#X obj 521 95 r Init;
#X obj 859 64 bng 15 250 50 0 empty empty empty 17 7 0 10 -262144 -1
-1;
#X obj 761 83 bng 15 250 50 0 empty empty empty 17 7 0 10 -262144 -1
-1;
#X obj 515 127 t b b b b;
#X obj 38 342 lop_biquad;
#X obj 111 304 r ShikoSynth_Res;
#X obj 82 281 r ShikoSynth_CutOff;
#X obj 85 387 adsr~;
#X obj 658 208 vsl 15 128 0 1 0 0 empty empty empty 0 -9 0 10 -262144
-1 -1 0 1;
#X obj 694 207 vsl 15 128 0 1 0 0 empty empty empty 0 -9 0 10 -262144
-1 -1 12700 1;
#X obj 630 210 vsl 15 128 0 1 0 0 empty empty empty 0 -9 0 10 -262144
-1 -1 1270 1;
#X obj 725 207 vsl 15 128 0 1 0 0 empty empty empty 0 -9 0 10 -262144
-1 -1 6350 1;
#X msg 658 177 0;
#X msg 694 177 1;
#X msg 741 176 0.5;
#X obj 628 415 s adsr;
#X obj 629 357 pack f f f f f;
#X msg 628 176 0.1;
#X obj 664 137 r Init;
#X obj 139 362 r adsr;
#X obj 37 399 *~;
#X obj 886 714 metro 200;
#X msg 627 384 \$2 \$3 \$4 \$5 1;
#X obj 31 172 oscillator~;
#X obj 92 133 hradio 15 1 0 5 empty empty empty 0 -8 0 10 -4032 -1
-1 3;
#X obj 188 175 oscillator~;
#X obj 241 140 hradio 15 1 0 5 empty empty empty 0 -8 0 10 -4032 -1
-1 3;
#X obj 106 54 hradio 15 1 0 5 empty empty empty 0 -8 0 10 -262130 -1
-1 2;
#X obj 189 122 mtof;
#X obj 268 53 hradio 15 1 0 5 empty empty empty 0 -8 0 10 -262130 -1
-1 0;
#X obj 32 245 *~ 0.5;
#X floatatom 575 359 5 0 0 0 - - -, f 5;
#X obj 81 570 r ShikoSynth_MasterVolume;
#X obj 34 77 midiOctaver;
#X obj 191 82 midiOctaver;
#X connect 2 0 58 0;
#X connect 3 0 68 0;
#X connect 3 0 69 0;
#X connect 4 0 1 0;
#X connect 4 0 1 1;
#X connect 7 0 5 0;
#X connect 8 0 6 0;
#X connect 8 0 4 0;
#X connect 9 0 29 0;
#X connect 11 0 29 0;
#X connect 12 0 56 0;
#X connect 13 0 8 0;
#X connect 15 0 16 0;
#X connect 16 0 4 1;
#X connect 17 0 18 0;
#X connect 18 0 19 0;
#X connect 19 0 20 1;
#X connect 20 0 13 0;
#X connect 21 0 3 0;
#X connect 21 1 42 0;
#X connect 22 0 25 0;
#X connect 23 0 21 0;
#X connect 25 0 21 1;
#X connect 26 0 66 0;
#X connect 27 0 28 0;
#X connect 27 0 22 0;
#X connect 28 0 23 0;
#X connect 29 0 10 0;
#X connect 29 1 30 0;
#X connect 31 0 26 0;
#X connect 32 0 24 0;
#X connect 33 0 14 0;
#X connect 34 0 17 0;
#X connect 35 0 38 0;
#X connect 36 0 30 0;
#X connect 37 0 10 0;
#X connect 38 0 34 0;
#X connect 38 1 33 0;
#X connect 38 2 32 0;
#X connect 38 3 31 0;
#X connect 39 0 55 0;
#X connect 40 0 39 2;
#X connect 41 0 39 1;
#X connect 42 0 55 1;
#X connect 43 0 51 2;
#X connect 43 0 51 0;
#X connect 44 0 51 3;
#X connect 44 0 51 0;
#X connect 45 0 51 1;
#X connect 45 0 51 0;
#X connect 46 0 51 4;
#X connect 46 0 51 0;
#X connect 47 0 43 0;
#X connect 48 0 44 0;
#X connect 49 0 46 0;
#X connect 51 0 57 0;
#X connect 52 0 45 0;
#X connect 53 0 52 0;
#X connect 53 0 47 0;
#X connect 53 0 48 0;
#X connect 53 0 49 0;
#X connect 54 0 42 1;
#X connect 55 0 20 0;
#X connect 56 0 5 0;
#X connect 57 0 50 0;
#X connect 58 0 65 0;
#X connect 59 0 58 1;
#X connect 60 0 65 0;
#X connect 61 0 60 1;
#X connect 62 0 68 1;
#X connect 63 0 60 0;
#X connect 64 0 69 1;
#X connect 65 0 39 0;
#X connect 67 0 15 0;
#X connect 68 0 2 0;
#X connect 69 0 63 0;
