#N canvas 562 50 1006 894 10;
#N canvas 0 50 450 250 (subpatch) 0;
#X array Output 100 float 5;
#A 0 0.720386 0.710029 0.699551 0.688954 0.678242 0.667417 0.656481
0.645437 0.634286 0.623033 0.611678 0.600226 0.588677 0.577036 0.565303
0.553482 0.541576 0.529586 0.517515 0.505367 0.493142 0.480845 0.468477
0.456041 0.443539 0.430974 0.418349 0.405666 0.392928 0.380136 0.367294
0.354404 0.341469 0.328491 0.315473 0.302416 0.289324 0.2762 0.263045
0.249862 0.236653 0.223422 0.210169 0.196899 0.183613 0.170314 0.157005
0.143686 0.130362 0.117035 0.103706 0.0903784 0.0770544 0.0637365 0.0504269
0.037128 0.0238421 0.0105716 -0.00268123 -0.0159141 -0.0291247 -0.0423107
-0.05547 -0.0686001 -0.081699 -0.0947643 -0.107794 -0.120785 -0.133737
-0.146646 -0.159511 -0.172329 -0.185098 -0.197816 -0.210482 -0.223092
-0.235645 -0.24814 -0.260572 -0.272942 -0.285246 -0.297484 -0.309651
-0.321748 -0.333772 -0.345721 -0.357593 -0.369386 -0.381098 -0.392728
-0.404273 -0.415733 -0.427104 -0.438386 -0.449577 -0.460674 -0.471676
-0.482582 -0.49339 -0.504097;
#X coords 0 1 100 -1 200 140 1 0 0;
#X restore 235 590 graph;
#X obj 88 712 dac~, f 5;
#X obj 65 196 phasor~;
#X obj 64 167 mtof;
#X floatatom 99 46 5 0 0 0 - - -, f 5;
#X obj 92 637 *~;
#X obj 509 703 tabwrite~ Output;
#X obj 581 626 metro 200;
#X obj 63 235 -~ 0.5;
#X obj 61 300 *~ 2;
#X obj 142 553 s~ Tabwrite;
#X obj 453 614 r~ Tabwrite;
#X obj 79 526 *~ 1;
#N canvas 241 50 1261 942 filtering 1;
#X obj 90 52 inlet~;
#X obj 92 229 outlet~;
#X obj 439 349 r sFrequency;
#X floatatom 439 371 5 0 0 0 - - -, f 5;
#X obj 613 195 vsl 15 128 0 127 0 0 empty empty cFrequency 0 -9 0 10
-258113 -1 -1 4000 1;
#X floatatom 629 398 8 0 0 0 - - -, f 8;
#X obj 328 350 r cFrequency;
#X floatatom 311 377 8 0 0 0 - - -, f 8;
#X msg 417 226 44100;
#X obj 417 248 s sFrequency;
#X obj 209 419 expr tan(4*atan(1) * $f2 / $f3);
#X obj 88 348 r compute;
#X obj 88 370 t b b;
#X obj 47 585 expr $f2 * $f2 * $f1;
#X obj 47 677 expr $f1 *2;
#X obj 102 734 s a1;
#X obj 45 798 expr $f2;
#X obj 92 862 s a2, f 5;
#X obj 281 489 s K, f 5;
#X obj 247 550 expr 2 * ($f2 * $f2 - 1) * $f3;
#X obj 79 557 s norm;
#X obj 199 557 r K;
#X obj 359 511 r K;
#X obj 452 511 r norm;
#X obj 256 714 expr (1 - $f2 / $f3 + $f2 * $f2) * $f4;
#X obj 359 677 r K;
#X obj 729 291 vsl 15 128 0.1 12 0 0 quality empty Quality 0 -9 0 10
-4032 -1 -1 3095 1;
#X floatatom 729 427 8 0 0 0 - - -, f 8;
#X obj 411 677 r quality;
#X obj 514 673 r norm;
#X obj 317 795 s b2;
#X obj 40 498 expr 1./(1+ $f3/$f2 + $f3 * $f3);
#X obj 129 450 r quality;
#X obj 266 856 expr $f2;
#X obj 99 765 r a0;
#X obj 78 646 s a0;
#X obj 327 824 r b1saved;
#X obj 285 884 s b1;
#X obj 356 626 s b1saved;
#X obj 142 95 r b1;
#X obj 181 92 r b2;
#X obj 217 93 r a0;
#X obj 249 118 r a1;
#X obj 284 90 r a2;
#X obj 143 120 * -1;
#X obj 182 121 * -1;
#X obj 632 374 mtof;
#X obj 631 425 s cFrequency;
#X obj 49 526 t f f;
#X obj 47 614 t f f;
#X obj 47 709 t f f;
#X obj 45 828 t f f;
#X obj 254 594 t f f;
#X obj 262 764 t f f;
#X obj 607 502 s compute;
#X obj 237 451 t f f;
#X obj 150 151 pack f f f f f, f 20;
#X obj 91 192 d-biquad~;
#X obj 511 94 inlet frequency;
#X obj 866 69 inlet quality;
#X obj 344 158 r PreInit;
#X obj 344 194 t b b b;
#X msg 369 240 1000;
#X obj 370 277 s cFrequency;
#X msg 344 216 0.1;
#X floatatom 129 472 5 0 0 0 - - -, f 5;
#X obj 335 300 s quality;
#X obj 44 409 print COMPUTE;
#X obj 417 248 print SampleRate;
#X obj 149 173 print compute pack;
#X obj 607 343 t b f;
#X connect 0 0 57 0;
#X connect 2 0 3 0;
#X connect 3 0 10 2;
#X connect 4 0 70 0;
#X connect 5 0 47 0;
#X connect 6 0 7 0;
#X connect 7 0 10 1;
#X connect 8 0 9 0;
#X connect 8 0 68 0;
#X connect 10 0 55 0;
#X connect 11 0 12 0;
#X connect 11 0 67 0;
#X connect 12 0 31 0;
#X connect 12 1 10 0;
#X connect 13 0 49 0;
#X connect 14 0 50 0;
#X connect 16 0 51 0;
#X connect 19 0 52 0;
#X connect 21 0 13 1;
#X connect 22 0 19 1;
#X connect 23 0 19 2;
#X connect 24 0 53 0;
#X connect 25 0 24 1;
#X connect 26 0 27 0;
#X connect 27 0 54 0;
#X connect 28 0 24 2;
#X connect 29 0 24 3;
#X connect 31 0 48 0;
#X connect 32 0 31 1;
#X connect 32 0 65 0;
#X connect 33 0 37 0;
#X connect 34 0 16 1;
#X connect 36 0 33 1;
#X connect 39 0 44 0;
#X connect 40 0 45 0;
#X connect 41 0 56 2;
#X connect 42 0 56 3;
#X connect 43 0 56 4;
#X connect 44 0 56 0;
#X connect 45 0 56 1;
#X connect 46 0 5 0;
#X connect 48 0 13 0;
#X connect 48 1 20 0;
#X connect 49 0 14 0;
#X connect 49 1 35 0;
#X connect 50 0 16 0;
#X connect 50 1 15 0;
#X connect 51 0 19 0;
#X connect 51 1 17 0;
#X connect 52 0 24 0;
#X connect 52 1 38 0;
#X connect 53 0 33 0;
#X connect 53 1 30 0;
#X connect 55 0 31 2;
#X connect 55 1 18 0;
#X connect 56 0 57 1;
#X connect 56 0 69 0;
#X connect 57 0 1 0;
#X connect 58 0 4 0;
#X connect 59 0 26 0;
#X connect 60 0 61 0;
#X connect 61 0 64 0;
#X connect 61 1 62 0;
#X connect 61 2 8 0;
#X connect 62 0 63 0;
#X connect 64 0 66 0;
#X connect 70 0 54 0;
#X connect 70 1 46 0;
#X restore 77 434 pd filtering;
#X obj 781 32 loadbang;
#X obj 785 123 s Init;
#X obj 879 40 bng 15 250 50 0 empty empty empty 17 7 0 10 -262144 -1
-1;
#X obj 592 561 r Init;
#X obj 166 164 noise~;
#X obj 78 496 clip~ -1 1;
#X obj 381 251 vsl 15 128 0 1 0 0 empty empty VOLUME 0 -9 0 10 -260097
-1 -1 3175 1;
#X msg 270 492 \$1 15;
#X obj 262 529 line~;
#X obj 319 248 vsl 15 128 0 2 0 0 empty empty DISTO!!! 0 -9 0 10 -258113
-1 -1 5715 1;
#X msg 186 430 \$1 15;
#X obj 186 452 line~;
#X obj 76 465 *~;
#X obj 274 159 sequencer;
#X msg 342 83 120;
#X obj 272 110 tgl 15 0 empty empty empty 17 7 0 10 -262144 -1 -1 1
1;
#X obj 59 122 - 24;
#X obj 435 245 vsl 15 128 0 127 0 0 empty empty CUTOFF 0 -9 0 10 -4034
-1 -1 4000 1;
#X floatatom 338 127 5 0 0 0 - - -, f 5;
#X obj 488 247 vsl 15 128 0.1 12 0 0 empty empty RES 0 -9 0 10 -159808
-1 -1 3095 1;
#X obj 267 12 r Init;
#X msg 272 78 1;
#X obj 787 79 t b b;
#X obj 862 125 s PreInit;
#X msg 510 216 3;
#X msg 461 210 40;
#X msg 409 214 0.25;
#X msg 335 212 0.9;
#X obj 425 123 r Init;
#X obj 862 84 bng 15 250 50 0 empty empty empty 17 7 0 10 -262144 -1
-1;
#X obj 764 103 bng 15 250 50 0 empty empty empty 17 7 0 10 -262144
-1 -1;
#X obj 419 155 t b b b b;
#X connect 2 0 8 0;
#X connect 3 0 2 0;
#X connect 4 0 30 0;
#X connect 5 0 1 0;
#X connect 5 0 1 1;
#X connect 7 0 6 0;
#X connect 8 0 9 0;
#X connect 9 0 13 0;
#X connect 11 0 6 0;
#X connect 12 0 10 0;
#X connect 12 0 5 0;
#X connect 13 0 26 0;
#X connect 14 0 36 0;
#X connect 16 0 36 0;
#X connect 17 0 7 0;
#X connect 19 0 12 0;
#X connect 20 0 21 0;
#X connect 21 0 22 0;
#X connect 22 0 5 1;
#X connect 23 0 24 0;
#X connect 24 0 25 0;
#X connect 25 0 26 1;
#X connect 26 0 19 0;
#X connect 27 0 4 0;
#X connect 28 0 32 0;
#X connect 29 0 27 0;
#X connect 30 0 3 0;
#X connect 31 0 13 1;
#X connect 32 0 27 1;
#X connect 33 0 13 2;
#X connect 34 0 35 0;
#X connect 34 0 28 0;
#X connect 35 0 29 0;
#X connect 36 0 15 0;
#X connect 36 1 37 0;
#X connect 38 0 33 0;
#X connect 39 0 31 0;
#X connect 40 0 20 0;
#X connect 41 0 23 0;
#X connect 42 0 45 0;
#X connect 43 0 37 0;
#X connect 44 0 15 0;
#X connect 45 0 41 0;
#X connect 45 1 40 0;
#X connect 45 2 39 0;
#X connect 45 3 38 0;
