#N canvas 562 50 1006 894 10;
#N canvas 0 50 450 250 (subpatch) 0;
#X array Output 100 float 5;
#A 0 -0.211029 -0.216359 -0.221645 -0.226886 -0.232081 -0.23723 -0.242331
-0.247384 -0.252388 -0.257342 -0.262245 -0.267098 -0.271898 -0.276646
-0.28134 -0.285981 -0.290566 -0.295096 -0.29957 -0.303987 -0.308347
-0.312648 -0.316891 -0.321074 -0.325198 -0.32926 -0.333262 -0.337202
-0.34108 -0.344895 -0.348646 -0.352333 -0.355957 -0.359515 -0.363007
-0.366434 -0.369794 -0.373087 -0.376313 -0.379471 -0.382561 -0.385582
-0.388534 -0.391416 -0.394229 -0.396971 -0.399643 -0.402243 -0.404773
-0.40723 -0.409616 -0.411929 -0.414169 -0.416337 -0.418431 -0.420452
-0.422399 -0.424272 -0.42607 -0.427794 -0.429444 -0.431019 -0.432518
-0.433942 -0.435291 -0.436564 -0.437761 -0.438883 -0.439928 -0.440898
-0.441791 -0.442607 -0.443347 -0.444011 -0.444598 -0.445108 -0.445542
-0.445899 -0.446179 -0.446383 -0.44651 -0.44656 -0.446533 -0.44643
-0.44625 -0.445993 -0.44566 -0.44525 -0.444764 -0.444202 -0.443564
-0.442849 -0.442059 -0.441192 -0.44025 -0.439233 -0.43814 -0.436972
-0.435729 -0.434411;
#X coords 0 1 100 -1 200 140 1 0 0;
#X restore 463 706 graph;
#X obj 86 844 dac~, f 5;
#X obj 65 196 phasor~;
#X obj 64 167 mtof;
#X floatatom 99 46 5 0 0 0 - - -, f 5;
#X obj 90 769 *~;
#X obj 737 819 tabwrite~ Output;
#X obj 809 742 metro 200;
#X obj 63 218 -~ 0.5;
#X obj 61 269 *~ 2;
#X obj 153 626 s~ Tabwrite;
#X obj 681 730 r~ Tabwrite;
#X obj 90 599 *~ 1;
#X obj 781 32 loadbang;
#X obj 785 123 s Init;
#X obj 879 40 bng 15 250 50 0 empty empty empty 17 7 0 10 -262144 -1
-1;
#X obj 820 677 r Init;
#X obj 166 164 noise~;
#X obj 86 533 clip~ -1 1;
#X obj 381 251 vsl 15 128 0 1 0 0 ShikoSynth_Volume empty VOLUME 0
-9 0 10 -260097 -1 -1 3175 1;
#X msg 113 712 \$1 15;
#X obj 110 738 line~;
#X obj 344 248 vsl 15 128 0.5 50 0 0 empty empty DISTO!!! 0 -9 0 10
-258113 -1 -1 103 1;
#X msg 185 436 \$1 15;
#X obj 185 458 line~;
#X obj 76 465 *~;
#X obj 274 159 sequencer;
#X msg 342 83 120;
#X obj 272 110 tgl 15 0 empty empty empty 17 7 0 10 -262144 -1 -1 1
1;
#X obj 59 122 - 24;
#X obj 426 249 vsl 15 128 0 127 0 0 ShikoSynth_CutOff empty CUTOFF
0 -9 0 10 -4034 -1 -1 4000 1;
#X floatatom 338 127 5 0 0 0 - - -, f 5;
#X obj 479 251 vsl 15 128 0.1 12 0 0 ShikoSynth_Res empty RES 0 -9
0 10 -159808 -1 -1 3095 1;
#X obj 267 12 r Init;
#X msg 272 78 1;
#X obj 787 79 t b b;
#X obj 862 125 s PreInit;
#X msg 486 203 3;
#X msg 439 206 40;
#X msg 395 208 0.25;
#X msg 345 209 0.9;
#X obj 425 123 r Init;
#X obj 862 84 bng 15 250 50 0 empty empty empty 17 7 0 10 -262144 -1
-1;
#X obj 764 103 bng 15 250 50 0 empty empty empty 17 7 0 10 -262144
-1 -1;
#X obj 419 155 t b b b b;
#X obj 60 340 lop_biquad;
#X obj 133 302 r ShikoSynth_Res;
#X obj 104 279 r ShikoSynth_CutOff;
#X obj 114 684 r ShikoSynth_Volume;
#X obj 171 370 adsr~;
#X obj 665 227 vsl 15 128 0 1 0 0 empty empty empty 0 -9 0 10 -262144
-1 -1 0 1;
#X obj 697 227 vsl 15 128 0 1 0 0 empty empty empty 0 -9 0 10 -262144
-1 -1 12700 1;
#X obj 633 230 vsl 15 128 0 1 0 0 empty empty empty 0 -9 0 10 -262144
-1 -1 1270 1;
#X obj 728 227 vsl 15 128 0 1 0 0 empty empty empty 0 -9 0 10 -262144
-1 -1 6350 1;
#X msg 661 197 0;
#X msg 697 197 1;
#X msg 744 196 0.5;
#X obj 631 435 s adsr;
#X obj 632 377 pack f f f f f;
#X msg 630 404 \$2 \$3 \$4 \$5 1 1;
#X msg 631 196 0.1;
#X obj 667 157 r Init;
#X obj 222 340 r adsr;
#X obj 72 408 *~;
#X obj 287 408 vsl 15 128 0 -1 0 0 empty empty empty 0 -9 0 10 -262144
-1 -1 12700 1;
#X obj 317 408 vsl 15 128 0 1 0 0 empty empty empty 0 -9 0 10 -262144
-1 -1 12700 1;
#X connect 2 0 8 0;
#X connect 3 0 2 0;
#X connect 4 0 29 0;
#X connect 5 0 1 0;
#X connect 5 0 1 1;
#X connect 7 0 6 0;
#X connect 8 0 9 0;
#X connect 9 0 45 0;
#X connect 11 0 6 0;
#X connect 12 0 10 0;
#X connect 12 0 5 0;
#X connect 13 0 35 0;
#X connect 15 0 35 0;
#X connect 16 0 7 0;
#X connect 18 0 12 0;
#X connect 20 0 21 0;
#X connect 21 0 5 1;
#X connect 22 0 23 0;
#X connect 23 0 24 0;
#X connect 24 0 25 1;
#X connect 25 0 18 0;
#X connect 26 0 4 0;
#X connect 26 1 49 0;
#X connect 27 0 31 0;
#X connect 28 0 26 0;
#X connect 29 0 3 0;
#X connect 31 0 26 1;
#X connect 33 0 34 0;
#X connect 33 0 27 0;
#X connect 34 0 28 0;
#X connect 35 0 14 0;
#X connect 35 1 36 0;
#X connect 37 0 32 0;
#X connect 38 0 30 0;
#X connect 39 0 19 0;
#X connect 40 0 22 0;
#X connect 41 0 44 0;
#X connect 42 0 36 0;
#X connect 43 0 14 0;
#X connect 44 0 40 0;
#X connect 44 1 39 0;
#X connect 44 2 38 0;
#X connect 44 3 37 0;
#X connect 45 0 63 0;
#X connect 46 0 45 2;
#X connect 47 0 45 1;
#X connect 48 0 20 0;
#X connect 49 0 63 1;
#X connect 50 0 58 2;
#X connect 50 0 58 0;
#X connect 51 0 58 3;
#X connect 51 0 58 0;
#X connect 52 0 58 1;
#X connect 52 0 58 0;
#X connect 53 0 58 4;
#X connect 53 0 58 0;
#X connect 54 0 50 0;
#X connect 55 0 51 0;
#X connect 56 0 53 0;
#X connect 58 0 59 0;
#X connect 59 0 57 0;
#X connect 60 0 52 0;
#X connect 61 0 60 0;
#X connect 61 0 54 0;
#X connect 61 0 55 0;
#X connect 61 0 56 0;
#X connect 62 0 49 1;
#X connect 63 0 25 0;
#X connect 64 0 18 1;
#X connect 65 0 18 2;
