#N canvas 0 22 347 297 10;
#X obj 20 232 outlet~;
#X obj 21 133 -~ 0.5;
#X obj 21 97 expr~ $v1 > $v2;
#X msg 134 55 0.5;
#X obj 189 47 vsl 15 128 0 1 0 0 empty empty empty 0 -9 0 10 -262144
-1 -1 6350 1;
#X obj 188 202 clip 0.01 0.99;
#X obj 20 56 phasor~;
#X obj 20 16 inlet frequency;
#X obj 189 15 inlet;
#X obj 131 16 loadbang;
#X obj 19 189 *~ 2;
#X connect 1 0 10 0;
#X connect 2 0 1 0;
#X connect 3 0 4 0;
#X connect 4 0 5 0;
#X connect 5 0 2 1;
#X connect 6 0 2 0;
#X connect 7 0 6 0;
#X connect 8 0 4 0;
#X connect 9 0 3 0;
#X connect 10 0 0 0;
