#N canvas 729 95 604 655 10;
#X obj 97 241 timer;
#X obj 118 100 i;
#X obj 169 99 + 1;
#X obj 117 186 select 0 1;
#X obj 157 241 timer;
#X obj 81 466 spigot 0;
#X obj 97 337 expr (60000./$f1);
#X obj 137 432 > 40;
#X obj 196 418 < 300;
#X obj 89 501 spigot 0;
#X obj 106 28 inlet bang!;
#X obj 101 572 outlet tempo;
#X obj 101 395 t f f f;
#X obj 114 139 mod 2;
#X connect 0 0 6 0;
#X connect 1 0 2 0;
#X connect 1 0 13 0;
#X connect 2 0 1 1;
#X connect 3 0 0 0;
#X connect 3 0 4 1;
#X connect 3 1 0 1;
#X connect 3 1 4 0;
#X connect 4 0 6 0;
#X connect 5 0 9 0;
#X connect 6 0 12 0;
#X connect 7 0 5 1;
#X connect 8 0 9 1;
#X connect 9 0 11 0;
#X connect 10 0 1 0;
#X connect 12 0 5 0;
#X connect 12 1 7 0;
#X connect 12 2 8 0;
#X connect 13 0 3 0;
