#N canvas 0 22 202 306 10;
#X obj 26 257 outlet~;
#X obj 19 78 phasor~;
#X obj 17 188 clip~ 0 1;
#X obj 84 187 clip~ 0 1;
#X obj 72 151 *~ -1;
#X obj 23 122 expr~ $v1*2 - 1;
#X obj 21 223 expr~ $v1*2 - 1;
#X obj 17 33 inlet frequency;
#X connect 1 0 5 0;
#X connect 2 0 6 0;
#X connect 3 0 6 0;
#X connect 4 0 3 0;
#X connect 5 0 2 0;
#X connect 5 0 4 0;
#X connect 6 0 0 0;
#X connect 7 0 1 0;
