#N canvas 574 120 659 479 10;
#X obj 121 69 * 127;
#X obj 108 99 mtof;
#X msg 86 133 \$1 300;
#X obj 39 104 noise~;
#X obj 35 199 vcf~ 0 1;
#X obj 154 164 + 1;
#X obj 160 125 * 6;
#X obj 104 200 line~, f 8;
#X obj 125 255 line~, f 10;
#X obj 63 324 lop~;
#X obj 153 305 mtof;
#X obj 230 229 line, f 10;
#X obj 73 289 *~;
#X obj 190 286 * 127;
#X obj 35 255 vcf~ 0 1;
#X obj 105 232 1;
#X msg 189 195 \$1 1000;
#X obj 64 161 line~, f 9;
#X obj 85 13 inlet frequency;
#X obj 187 11 inlet resonance;
#X obj 290 10 inlet volume;
#X obj 68 409 outlet~;
#X connect 0 0 1 0;
#X connect 1 0 2 0;
#X connect 2 0 7 0;
#X connect 2 0 17 0;
#X connect 3 0 4 0;
#X connect 4 0 14 0;
#X connect 5 0 4 2;
#X connect 5 0 15 0;
#X connect 6 0 5 0;
#X connect 7 0 14 1;
#X connect 8 0 12 1;
#X connect 9 0 21 0;
#X connect 10 0 9 1;
#X connect 11 0 13 0;
#X connect 12 0 9 0;
#X connect 13 0 10 0;
#X connect 14 0 12 0;
#X connect 15 0 14 2;
#X connect 16 0 8 0;
#X connect 16 0 11 0;
#X connect 17 0 4 1;
#X connect 18 0 0 0;
#X connect 19 0 6 0;
#X connect 20 0 16 0;
