#N canvas 669 23 1036 914 10;
#X obj 34 765 dac~;
#X obj 35 276 r frequency;
#X obj 72 302 r resonance;
#X obj 114 468 r note;
#X obj 139 495 r pitchModAmp;
#X obj 164 523 r pitchModSpeed;
#X obj 89 443 r onOff2;
#X obj 35 653 +~;
#X obj 358 311 taptempo;
#X obj 357 260 bng 15 250 50 0 empty empty empty 17 7 0 10 -262144
-1 -1;
#X floatatom 360 375 5 0 0 0 - - -, f 5;
#X obj 409 375 s tapTempoOut;
#X obj 416 252 r tapTempoIn;
#X obj 309 528 sequencer;
#X obj 309 375 tgl 15 0 empty empty empty 17 7 0 10 -262144 -1 -1 1
1;
#X obj 233 550 notein;
#X obj 563 89 vsl 15 128 0 1 0 0 empty empty empty 0 -9 0 10 -262144
-1 -1 0 1;
#X obj 595 89 vsl 15 128 0 1 0 0 empty empty empty 0 -9 0 10 -262144
-1 -1 12700 1;
#X obj 531 92 vsl 15 128 0 1 0 0 empty empty empty 0 -9 0 10 -262144
-1 -1 1270 1;
#X obj 626 89 vsl 15 128 0 1 0 0 empty empty empty 0 -9 0 10 -262144
-1 -1 6350 1;
#X msg 559 59 0;
#X msg 595 59 1;
#X msg 642 58 0.5;
#X obj 529 297 s adsr;
#X obj 233 615 polySynth;
#X obj 760 89 vsl 15 128 0 1 0 0 empty empty empty 0 -9 0 10 -262144
-1 -1 0 1;
#X obj 792 89 vsl 15 128 0 1 0 0 empty empty empty 0 -9 0 10 -262144
-1 -1 12700 1;
#X obj 728 92 vsl 15 128 0 1 0 0 empty empty empty 0 -9 0 10 -262144
-1 -1 1270 1;
#X obj 823 89 vsl 15 128 0 1 0 0 empty empty empty 0 -9 0 10 -262144
-1 -1 6350 1;
#X msg 756 59 0;
#X msg 792 59 1;
#X msg 826 58 0.5;
#X obj 732 314 s filterAdsr;
#X obj 35 391 windGenerator;
#X obj 110 326 r volume;
#X obj 89 572 gyroTest, f 13;
#X obj 636 407 vsl 15 128 0 1 0 0 empty empty empty 0 -9 0 10 -262144
-1 -1 0 1;
#X obj 668 407 vsl 15 128 0 1 0 0 empty empty empty 0 -9 0 10 -262144
-1 -1 12700 1;
#X obj 604 410 vsl 15 128 0 1 0 0 empty empty empty 0 -9 0 10 -262144
-1 -1 1850 1;
#X obj 699 407 vsl 15 128 0.01 1 1 0 empty empty empty 0 -9 0 10 -228856
-1 -1 12700 1;
#X msg 668 377 1;
#X obj 604 666 s pitchAdsr;
#X msg 602 376 0.5;
#X msg 632 377 0;
#X floatatom 714 557 5 0 0 0 - - -, f 5;
#X obj 731 408 vsl 15 128 -12 12 0 0 empty empty empty 0 -9 0 10 -261682
-1 -1 5250 1;
#X msg 742 376 0;
#X obj 778 560 tgl 15 0 pitchAdsrOnOff empty pitchAdsrOnOff 17 7 0
10 -262144 -1 -1 1 1;
#X obj 855 91 vsl 15 128 0 1 0 0 empty empty empty 0 -9 0 10 -261682
-1 -1 9525 1;
#X obj 904 207 tgl 15 0 filterAdsrOnOff empty filterAdsrOnOff 17 7
0 10 -262144 -1 -1 1 1;
#X obj 530 239 pack f f f f f;
#X msg 528 266 \$2 \$3 \$4 \$5 1 1;
#X obj 50 24 loadbang;
#X obj 50 102 s initAll;
#X obj 102 55 bng 15 250 50 0 empty empty empty 17 7 0 10 -262144 -1
-1;
#X obj 565 19 r initAll;
#X obj 772 19 r initAll;
#X obj 651 336 r initAll;
#X msg 779 376 0;
#X msg 437 497 64;
#X obj 448 548 makenote 100 500;
#X msg 906 59 1;
#X msg 863 59 0.75;
#X obj 733 256 pack f f f f f f;
#X msg 732 282 \$2 \$3 \$4 \$5 \$6;
#X obj 605 608 pack f f f f f f;
#X msg 604 635 \$2 \$3 \$4 \$5 \$6;
#X obj 35 705 *~;
#X obj 103 683 r masterVolume;
#X obj 604 705 r initAll;
#X msg 604 736 0.5;
#X obj 607 779 hsl 128 15 0 1 0 0 masterVolume empty masterVolume -2
-8 0 10 -260097 -1 -1 6350 1;
#X msg 529 58 0.1;
#X msg 727 58 0.1;
#X msg 704 376 2;
#X connect 1 0 33 0;
#X connect 2 0 33 1;
#X connect 3 0 35 1;
#X connect 4 0 35 2;
#X connect 5 0 35 3;
#X connect 6 0 35 0;
#X connect 7 0 67 0;
#X connect 8 0 10 0;
#X connect 8 0 11 0;
#X connect 9 0 8 0;
#X connect 10 0 13 1;
#X connect 12 0 8 0;
#X connect 13 0 24 0;
#X connect 13 1 24 1;
#X connect 14 0 13 0;
#X connect 15 0 24 0;
#X connect 15 1 24 1;
#X connect 16 0 50 2;
#X connect 16 0 50 0;
#X connect 17 0 50 3;
#X connect 17 0 50 0;
#X connect 18 0 50 1;
#X connect 18 0 50 0;
#X connect 19 0 50 4;
#X connect 19 0 50 0;
#X connect 20 0 16 0;
#X connect 21 0 17 0;
#X connect 22 0 19 0;
#X connect 24 0 7 1;
#X connect 25 0 63 2;
#X connect 25 0 63 0;
#X connect 26 0 63 3;
#X connect 26 0 63 0;
#X connect 27 0 63 1;
#X connect 27 0 63 0;
#X connect 28 0 63 4;
#X connect 28 0 63 0;
#X connect 29 0 25 0;
#X connect 30 0 26 0;
#X connect 31 0 28 0;
#X connect 33 0 7 0;
#X connect 34 0 33 2;
#X connect 35 0 7 1;
#X connect 36 0 65 2;
#X connect 36 0 65 0;
#X connect 37 0 65 3;
#X connect 37 0 65 0;
#X connect 38 0 65 1;
#X connect 38 0 65 0;
#X connect 39 0 65 4;
#X connect 39 0 65 0;
#X connect 40 0 37 0;
#X connect 42 0 38 0;
#X connect 43 0 36 0;
#X connect 44 0 65 5;
#X connect 44 0 65 0;
#X connect 45 0 44 0;
#X connect 46 0 45 0;
#X connect 48 0 63 5;
#X connect 48 0 63 0;
#X connect 50 0 51 0;
#X connect 51 0 23 0;
#X connect 52 0 53 0;
#X connect 54 0 53 0;
#X connect 55 0 72 0;
#X connect 55 0 20 0;
#X connect 55 0 21 0;
#X connect 55 0 22 0;
#X connect 56 0 73 0;
#X connect 56 0 29 0;
#X connect 56 0 30 0;
#X connect 56 0 31 0;
#X connect 56 0 62 0;
#X connect 56 0 61 0;
#X connect 57 0 42 0;
#X connect 57 0 43 0;
#X connect 57 0 40 0;
#X connect 57 0 74 0;
#X connect 57 0 46 0;
#X connect 57 0 58 0;
#X connect 58 0 47 0;
#X connect 59 0 60 0;
#X connect 60 0 24 0;
#X connect 60 1 24 1;
#X connect 61 0 49 0;
#X connect 62 0 48 0;
#X connect 63 0 64 0;
#X connect 64 0 32 0;
#X connect 65 0 66 0;
#X connect 66 0 41 0;
#X connect 67 0 0 0;
#X connect 67 0 0 1;
#X connect 68 0 67 1;
#X connect 69 0 70 0;
#X connect 70 0 71 0;
#X connect 72 0 18 0;
#X connect 73 0 27 0;
#X connect 74 0 39 0;
