#N canvas 1018 193 502 482 10;
#X obj 33 145 mtof;
#X obj 92 161 hradio 15 1 0 5 empty ShikoSynth_Osc1WaveForm empty 0
-8 0 10 -4032 -1 -1 1;
#X obj 241 168 hradio 15 1 0 5 empty ShikoSynth_Osc2WaveForm empty
0 -8 0 10 -4032 -1 -1 2;
#X obj 106 82 hradio 15 1 0 5 empty ShikoSynth_Osc1Octave empty 0 -8
0 10 -262130 -1 -1 2;
#X obj 189 150 mtof;
#X obj 268 81 hradio 15 1 0 5 empty ShikoSynth_Osc2Octave empty 0 -8
0 10 -262130 -1 -1 0;
#X obj 34 105 midiOctaver;
#X obj 191 110 midiOctaver;
#X obj 223 233 r ShikoSynth_Osc2Volume;
#X obj 52 233 r ShikoSynth_Osc1Volume;
#X obj 29 317 *~;
#X obj 81 319 *~;
#X msg 50 260 \$1 15;
#X obj 50 283 line~;
#X msg 215 259 \$1 15;
#X obj 215 282 line~;
#X obj 31 431 outlet~;
#X obj 34 15 inlet midiNote/velocity;
#X obj 34 37 unpack 0 0;
#X floatatom 34 59 5 0 0 0 - - -, f 5;
#X obj 140 364 r adsr;
#X obj 32 373 *~;
#X floatatom 97 357 5 0 0 0 - - -, f 5;
#X obj 31 200 ../oscillator~;
#X obj 188 203 ../oscillator~;
#X obj 86 389 ../adsr~;
#X connect 0 0 23 0;
#X connect 1 0 23 1;
#X connect 2 0 24 1;
#X connect 3 0 6 1;
#X connect 4 0 24 0;
#X connect 5 0 7 1;
#X connect 6 0 0 0;
#X connect 7 0 4 0;
#X connect 8 0 14 0;
#X connect 9 0 12 0;
#X connect 10 0 21 0;
#X connect 11 0 21 0;
#X connect 12 0 13 0;
#X connect 13 0 10 1;
#X connect 14 0 15 0;
#X connect 15 0 11 1;
#X connect 17 0 18 0;
#X connect 18 0 6 0;
#X connect 18 0 7 0;
#X connect 18 0 19 0;
#X connect 18 1 22 0;
#X connect 20 0 25 1;
#X connect 21 0 16 0;
#X connect 22 0 25 0;
#X connect 23 0 10 0;
#X connect 24 0 11 0;
#X connect 25 0 21 1;
