#N canvas 828 55 1054 894 10;
#N canvas 0 50 450 250 (subpatch) 0;
#X array Output 100 float 5;
#A 0 -0.062746 0.0232654 0.0858649 0.109007 0.0895161 0.0373114 -0.0286141
-0.0861364 -0.117187 -0.113389 -0.0772525 -0.0208799 0.0380203 0.0826648
0.102101 0.0934585 0.0623222 0.0180639 -0.028976 -0.0655677 -0.0801163
-0.0680802 -0.0330211 0.0141112 0.0579502 0.084127 0.0847224 0.0601177
0.0208025 -0.0146508 -0.0286258 -0.0129508 0.0280773 0.0823308 0.135439
0.17187 0.178944 0.153075 0.101855 0.0408201 -0.0127359 -0.0452174
-0.0502678 -0.0302516 0.00499952 0.0420301 0.0684218 0.0759554 0.062099
0.0309477 -0.00823299 -0.0437995 -0.0651041 -0.0668312 -0.0505442 -0.023788
0.00237956 0.0182418 0.0186397 0.00282809 -0.0255188 -0.0583469 -0.0858032
-0.0986995 -0.0915171 -0.066335 -0.0316993 0.00149943 0.023057 0.026562
0.0112804 -0.0180172 -0.0525534 -0.0825351 -0.100346 -0.102262 -0.0890166
-0.0655218 -0.0377257 -0.010768 0.00887328 0.0140653 -0.00498953 -0.0549043
-0.12444 -0.191435 -0.23816 -0.254368 -0.236603 -0.189478 -0.12687
-0.0675268 -0.0278703 -0.0173396 -0.0353264 -0.0715401 -0.11043 -0.137846
-0.145456 -0.130343;
#X coords 0 1 100 -1 200 140 1 0 0;
#X restore 571 722 graph;
#X obj 25 755 dac~, f 5;
#X floatatom 32 190 5 0 0 0 - - -, f 5;
#X obj 28 616 *~;
#X obj 785 840 tabwrite~ Output;
#X obj 96 507 s~ Tabwrite;
#X obj 786 736 r~ Tabwrite;
#X obj 30 466 *~ 1;
#X obj 778 12 loadbang;
#X obj 782 103 s Init;
#X obj 876 20 bng 15 250 50 0 empty empty empty 17 7 0 10 -262144 -1
-1;
#X obj 875 736 r Init;
#X obj 487 224 vsl 15 128 0 1 0 0 ShikoSynth_MasterVolume empty MVOLUME
0 -9 0 10 -260097 -1 -1 6350 1;
#X msg 51 559 \$1 15;
#X obj 48 585 line~;
#X obj 440 220 vsl 15 128 0.5 50 0 0 empty empty DISTO!!! 0 -9 0 10
-258113 -1 -1 103 1;
#X msg 139 345 \$1 15;
#X obj 139 367 line~;
#X obj 30 374 *~;
#X msg 108 39 120;
#X obj 61 91 tgl 15 0 empty empty empty 17 7 0 10 -262144 -1 -1 1 1
;
#X obj 531 219 vsl 15 128 0 127 0 0 ShikoSynth_CutOff empty CUTOFF
0 -9 0 10 -4034 -1 -1 10700 1;
#X floatatom 104 83 5 0 0 0 - - -, f 5;
#X obj 572 219 vsl 15 128 0.1 12 0 0 ShikoSynth_Res empty RES 0 -9
0 10 -159808 -1 -1 10158 1;
#X obj 34 12 r Init;
#X msg 34 58 1;
#X obj 784 59 t b b;
#X obj 859 105 s PreInit;
#X msg 441 181 0.9;
#X obj 521 95 r Init;
#X obj 859 64 bng 15 250 50 0 empty empty empty 17 7 0 10 -262144 -1
-1;
#X obj 761 83 bng 15 250 50 0 empty empty empty 17 7 0 10 -262144 -1
-1;
#X obj 102 304 r ShikoSynth_Res;
#X obj 79 283 r ShikoSynth_CutOff;
#X obj 843 210 vsl 15 128 0 1 0 0 empty empty empty 0 -9 0 10 -262144
-1 -1 2540 1;
#X obj 879 209 vsl 15 128 0 1 0 0 empty empty empty 0 -9 0 10 -262144
-1 -1 0 1;
#X obj 815 212 vsl 15 128 0 1 0 0 empty empty empty 0 -9 0 10 -262144
-1 -1 127 1;
#X obj 910 209 vsl 15 128 0 1 0 0 empty empty empty 0 -9 0 10 -262144
-1 -1 0 1;
#X obj 813 417 s adsr;
#X obj 814 359 pack f f f f f;
#X obj 849 139 r Init;
#X obj 875 797 metro 200;
#X msg 812 386 \$2 \$3 \$4 \$5 1;
#X floatatom 572 358 5 0 0 0 - - -, f 5;
#X obj 52 531 r ShikoSynth_MasterVolume;
#X obj 515 127 t b b b b b b;
#X obj 615 216 vsl 15 128 0 1 0 0 ShikoSynth_Osc1Volume empty OSC1VOL
0 -9 0 10 -203904 -1 -1 10160 1;
#X floatatom 618 359 5 0 0 0 - - -, f 5;
#X obj 667 220 vsl 15 128 0 1 0 0 ShikoSynth_Osc2Volume empty OSC2VOL
0 -9 0 10 -204786 -1 -1 9525 1;
#X floatatom 667 359 5 0 0 0 - - -, f 5;
#X obj 35 403 clip~ -1 1;
#N canvas 338 145 851 555 poly 0;
#X obj 151 25 inlet midiNote;
#X obj 191 474 outlet~;
#X obj 282 25 inlet velocity;
#X obj 157 160 pack 0 0 0;
#X obj 156 203 route 1 2 3 4 5 6;
#X obj 58 309 bng 15 250 50 0 empty empty empty 17 7 0 10 -262144 -1
-1;
#X obj 26 327 monoDoubleOsc~;
#X obj 248 327 monoDoubleOsc~;
#X obj 136 326 monoDoubleOsc~;
#X obj 368 326 monoDoubleOsc~;
#X obj 480 327 monoDoubleOsc~;
#X obj 157 85 poly 6 1, f 10;
#X obj 155 310 bng 15 250 50 0 empty empty empty 17 7 0 10 -262144
-1 -1;
#X obj 254 310 bng 15 250 50 0 empty empty empty 17 7 0 10 -262144
-1 -1;
#X obj 373 309 bng 15 250 50 0 empty empty empty 17 7 0 10 -262144
-1 -1;
#X obj 604 308 bng 15 250 50 0 empty empty empty 17 7 0 10 -262144
-1 -1;
#X obj 488 308 bng 15 250 50 0 empty empty empty 17 7 0 10 -262144
-1 -1;
#X obj 592 327 monoDoubleOsc~;
#X connect 0 0 11 0;
#X connect 2 0 11 1;
#X connect 3 0 4 0;
#X connect 4 0 5 0;
#X connect 4 0 6 0;
#X connect 4 1 8 0;
#X connect 4 1 12 0;
#X connect 4 2 7 0;
#X connect 4 2 13 0;
#X connect 4 3 9 0;
#X connect 4 3 14 0;
#X connect 4 4 10 0;
#X connect 4 4 16 0;
#X connect 4 5 15 0;
#X connect 4 5 17 0;
#X connect 6 0 1 0;
#X connect 7 0 1 0;
#X connect 8 0 1 0;
#X connect 9 0 1 0;
#X connect 10 0 1 0;
#X connect 11 0 3 0;
#X connect 11 1 3 1;
#X connect 11 2 3 2;
#X connect 17 0 1 0;
#X restore 32 230 pd poly;
#X obj 280 135 hradio 15 1 0 5 ShikoSynth_Osc1WaveForm empty empty
0 -8 0 10 -4032 -1 -1 1;
#X obj 365 133 hradio 15 1 0 5 ShikoSynth_Osc2WaveForm empty empty
0 -8 0 10 -4032 -1 -1 2;
#X obj 276 79 hradio 15 1 0 5 ShikoSynth_Osc1Octave empty empty 0 -8
0 10 -262130 -1 -1 2;
#X obj 368 77 hradio 15 1 0 5 ShikoSynth_Osc2Octave empty empty 0 -8
0 10 -262130 -1 -1 1;
#X msg 366 108 2;
#X msg 278 52 2;
#X msg 278 111 1;
#X obj 302 7 r Init;
#X floatatom 173 99 5 0 0 0 - - -, f 5;
#X obj 171 122 mtof;
#X obj 167 158 osc~;
#X obj 150 201 *~;
#X obj 32 264 *~ 0.25;
#X obj 31 329 ../lop_biquad;
#X obj 34 120 ../sequencer;
#X obj 451 476 vsl 15 128 0 1.25 0 0 ShikoSynth_DelayFeedback empty
DELAYFEED 0 -9 0 10 -232576 -1 -1 6096 1;
#X obj 326 474 vsl 15 128 0 1 0 0 ShikoSynth_DelayMix empty DELAYMIX
0 -9 0 10 -232576 -1 -1 0 1;
#X obj 388 474 vsl 15 128 0 1000 0 0 ShikoSynth_DelayTime empty DELAYTIME
0 -9 0 10 -232576 -1 -1 11100 1;
#X msg 926 178 0;
#X msg 813 178 0.01;
#X msg 879 179 0;
#X msg 843 178 0.2;
#X msg 368 50 1;
#X msg 582 175 1.56;
#X msg 535 178 100;
#X msg 628 176 0.8;
#X msg 677 176 0.75;
#X floatatom 326 610 5 0 0 0 - - -, f 5;
#X floatatom 385 611 5 0 0 0 - - -, f 5;
#X floatatom 451 612 5 0 0 0 - - -, f 5;
#X msg 329 421 0.4;
#X msg 383 421 874;
#X msg 448 423 0.6;
#X obj 386 378 r Init;
#X obj 636 438 r Init;
#X obj 636 501 vsl 15 128 0 1 0 0 ShikoSynth_ReverbMix empty REVERBMIX
0 -9 0 10 -262144 -1 -1 3900 1;
#X floatatom 636 637 5 0 0 0 - - -, f 5;
#N canvas 592 112 674 588 Fx~ 1;
#X obj 20 33 inlet~;
#X obj 18 513 outlet~;
#X obj 95 230 *~;
#X obj 126 128 r ShikoSynth_DelayMix;
#X obj 21 228 *~;
#N canvas 949 50 487 380 Fx_delay~ 0;
#X obj 86 17 inlet~;
#X obj 90 317 outlet~;
#X obj 121 173 *~ 0.99;
#X floatatom 211 67 5 0 0 0 - - -, f 5;
#X obj 211 45 r ShikoSynth_DelayFeedback;
#X floatatom 221 152 5 0 0 0 - - -, f 5;
#X obj 221 130 r ShikoSynth_DelayTime;
#X obj 94 91 delwrite~ delayline 1000;
#X obj 93 251 vd~ delayline 1000;
#X obj 165 208 line~;
#X msg 206 186 \$1 30;
#X obj 114 129 clip~ -1 1;
#X connect 0 0 7 0;
#X connect 2 0 11 0;
#X connect 4 0 2 1;
#X connect 4 0 3 0;
#X connect 5 0 10 0;
#X connect 6 0 5 0;
#X connect 8 0 2 0;
#X connect 8 0 1 0;
#X connect 9 0 8 0;
#X connect 10 0 9 0;
#X connect 11 0 7 0;
#X restore 78 94 pd Fx_delay~;
#X obj 20 368 *~;
#X obj 289 348 *~;
#X obj 246 175 r ShikoSynth_ReverbMix;
#X floatatom 389 113 5 0 0 0 - - -, f 5;
#X floatatom 437 136 5 0 0 0 - - -, f 5;
#X obj 364 18 r ShikoSynth_ReverbLevel;
#X obj 374 54 * 110;
#X obj 440 57 r ShikoSynth_ReverbLiveness;
#X obj 442 96 * 100;
#X obj 126 169 ../crossfade;
#X obj 254 256 ../crossfade;
#X obj 419 165 rev2~ 100 20 5000 50, f 22;
#X connect 0 0 4 0;
#X connect 0 0 5 0;
#X connect 0 0 17 0;
#X connect 2 0 1 0;
#X connect 3 0 15 0;
#X connect 4 0 6 0;
#X connect 5 0 2 0;
#X connect 6 0 1 0;
#X connect 7 0 1 0;
#X connect 8 0 16 0;
#X connect 9 0 17 1;
#X connect 10 0 17 2;
#X connect 11 0 12 0;
#X connect 12 0 9 0;
#X connect 13 0 14 0;
#X connect 14 0 10 0;
#X connect 15 0 2 1;
#X connect 15 1 4 1;
#X connect 16 0 7 1;
#X connect 16 1 6 1;
#X connect 17 0 7 0;
#X restore 29 425 pd Fx~;
#X msg 636 460 0.2;
#X obj 697 498 vsl 15 128 0 1 0 0 ShikoSynth_ReverbLevel empty REVERBLEVEL
0 -9 0 10 -204800 -1 -1 12065 1;
#X floatatom 697 641 5 0 0 0 - - -, f 5;
#X msg 697 464 0.95;
#X obj 772 501 vsl 15 128 0 1 0 0 ShikoSynth_ReverbLiveness empty REVERBSIZE
0 -9 0 10 -204800 -1 -1 8890 1;
#X floatatom 772 644 5 0 0 0 - - -, f 5;
#X msg 772 467 0.7;
#X msg 491 180 0.5;
#X connect 2 0 51 0;
#X connect 3 0 1 0;
#X connect 3 0 1 1;
#X connect 6 0 4 0;
#X connect 7 0 5 0;
#X connect 7 0 3 0;
#X connect 8 0 26 0;
#X connect 10 0 26 0;
#X connect 11 0 41 0;
#X connect 13 0 14 0;
#X connect 14 0 3 1;
#X connect 15 0 16 0;
#X connect 16 0 17 0;
#X connect 17 0 18 1;
#X connect 18 0 50 0;
#X connect 19 0 22 0;
#X connect 20 0 66 0;
#X connect 22 0 66 1;
#X connect 23 0 43 0;
#X connect 24 0 25 0;
#X connect 24 0 19 0;
#X connect 25 0 20 0;
#X connect 26 0 9 0;
#X connect 26 1 27 0;
#X connect 28 0 15 0;
#X connect 29 0 45 0;
#X connect 30 0 27 0;
#X connect 31 0 9 0;
#X connect 32 0 65 2;
#X connect 33 0 65 1;
#X connect 34 0 39 2;
#X connect 34 0 39 0;
#X connect 35 0 39 3;
#X connect 35 0 39 0;
#X connect 36 0 39 1;
#X connect 36 0 39 0;
#X connect 37 0 39 4;
#X connect 37 0 39 0;
#X connect 39 0 42 0;
#X connect 40 0 71 0;
#X connect 40 0 73 0;
#X connect 40 0 72 0;
#X connect 40 0 70 0;
#X connect 41 0 4 0;
#X connect 42 0 38 0;
#X connect 44 0 13 0;
#X connect 45 0 28 0;
#X connect 45 1 97 0;
#X connect 45 2 76 0;
#X connect 45 3 75 0;
#X connect 45 4 77 0;
#X connect 45 5 78 0;
#X connect 46 0 47 0;
#X connect 48 0 49 0;
#X connect 50 0 89 0;
#X connect 51 0 64 0;
#X connect 56 0 53 0;
#X connect 57 0 54 0;
#X connect 58 0 52 0;
#X connect 59 0 57 0;
#X connect 59 0 74 0;
#X connect 59 0 56 0;
#X connect 59 0 58 0;
#X connect 60 0 61 0;
#X connect 61 0 62 0;
#X connect 62 0 63 1;
#X connect 64 0 65 0;
#X connect 65 0 18 0;
#X connect 66 0 2 0;
#X connect 66 1 51 1;
#X connect 67 0 81 0;
#X connect 68 0 79 0;
#X connect 69 0 80 0;
#X connect 70 0 37 0;
#X connect 71 0 36 0;
#X connect 72 0 35 0;
#X connect 73 0 34 0;
#X connect 74 0 55 0;
#X connect 75 0 23 0;
#X connect 76 0 21 0;
#X connect 77 0 46 0;
#X connect 78 0 48 0;
#X connect 82 0 68 0;
#X connect 83 0 69 0;
#X connect 84 0 67 0;
#X connect 85 0 82 0;
#X connect 85 0 83 0;
#X connect 85 0 84 0;
#X connect 86 0 90 0;
#X connect 86 0 93 0;
#X connect 86 0 96 0;
#X connect 87 0 88 0;
#X connect 89 0 7 0;
#X connect 90 0 87 0;
#X connect 91 0 92 0;
#X connect 93 0 91 0;
#X connect 94 0 95 0;
#X connect 96 0 94 0;
#X connect 97 0 12 0;
